<svg xmlns="http://www.w3.org/2000/svg" width="277" height="241"><path fill="#4e331c" d="m111 4 4 5V7c2-2 2-2 4-3v2c3.11 1.56 6.26.96 9.69.84C131 7 131 7 133 9l3 2c1.39 2.5 1.39 2.5 2.69 5.44.43.97.87 1.93 1.32 2.93C141 22 141 22 141 25h-2c.16.49.16.49 1 3-2.46 3.88-4.62 5.66-9 7v2c-4.15 1.47-8.14 2.86-12.5 3.56-.83.15-1.65.29-2.5.44-.16.33-.16.33-1 2h-2c5 .82 9.83 1.14 14.9 1.1.36 0 .36 0 2.19-.01 2.28 0 4.57-.01 6.85-.03 1.56 0 3.11-.01 4.67-.01 3.8-.01 7.59-.03 11.39-.05l2 4c1.05-.37 2.1-.74 3.19-1.12 3.81-.88 3.81-.88 6.69-.26C167 48 167 48 167.81 50.12c.06.62.13 1.24.19 1.88 3.75 1.12 3.75 1.12 6 0l1 3c3.06 1.69 3.06 1.69 6 3v2h5l1 3c1.33.67 2.67 1.34 4 2 11 11.84 11 11.84 11 18h3v-7h2c.02-.28.02-.28.11-1.72.46-5.4 1.55-9.4 3.89-14.28.33-.91.66-1.81 1-2.75 1.04-2.34 2.22-3.47 4-5.25v-3h-5l-1 2c-1.93.48-1.93.48-4.31.75l-2.37.3c-4.75-.1-8.58-3.33-12.32-6.05v-2l-5-1v-5h-2c-1.02-4.63-.96-8.35 0-13 .33-.49.33-.49 2-3l.94-2c1.12-2.11 2.23-3.47 4.06-5h2l1 1 2-1v2c.56.12 1.11.25 1.69.38 2.31.62 2.31.62 4.69 1.87 2.62.75 2.62.75 5.81-.56.93-.56 1.85-1.12 2.81-1.69 3.07-1.53 5.7-.55 9 0l1 3 3 1c.73 1.85.73 1.85 1.19 4.06.16.74.31 1.47.48 2.23q.165.84.33 1.71h2v3l-2-1v4c-1.02 2.11-1.02 2.11-2.38 4.19-.22.34-.22.34-1.33 2.1C221 43 221 43 219 44l2 3c.91-.31 1.81-.62 2.75-.94C227 45 227 45 229.31 44.5c.56-.16 1.12-.33 1.69-.5l1-2c6.62-1.56 11.76-.64 18 2 2.94 2 2.94 2 5 4 .58.43 1.15.87 1.75 1.31 1.96 2.65 1.95 5.47 2.25 8.69l3 1q.045 4.47.06 8.94l.03 2.57c0 .81 0 1.62.01 2.45 0 .75.01 1.5.01 2.27C262 77 262 77 261 78l.12 3.38C261 85 261 85 259.62 86.69c-.53.43-1.07.86-1.62 1.31l-.88 1.88c-1.53 2.89-3.81 4.81-6.12 7.12l-1 3h-2l-1 5h-3v-2l-2 2v2c-3 1-3 1-7 1-3 2-3 2-3.88 4-1.52 2.72-3.26 2.93-6.12 4-2.3 3.45-2.14 4.23-1.62 8.19.11.9.22 1.8.33 2.73.05.34.05.34.29 2.08h4v2l3 1v2c1.89.99 3.79 1.96 5.69 2.94 1.05.54 2.11 1.09 3.2 1.65 2.79 1.26 5.14 1.82 8.11 2.41 3.05 2.69 5.82 5.55 8 9v3h2l-1 3h-2c.19 1.11.37 2.23.56 3.38C256 163 256 163 255 165h-2c.23 1.09.45 2.19.69 3.31.1 1.22.2 2.44.31 3.69-.48.48-.96.96-1.46 1.45-1.54 1.55-1.54 1.55-1.9 3.66.01.4.01.4.03 2.43 0 .44 0 .44.02 2.7l.06 2.82c.01.91.01 1.81.02 2.74.19 17.16.19 17.16 2.23 19.2l2-2c-.08.76-.16 1.53-.25 2.31.25 2.69.25 2.69 2.25 4.38.66.43 1.32.86 2 1.31v2l4-2 2 2h-2c.45.39.91.78 1.38 1.19 1.9 2.12 2.68 4.14 3.62 6.81l-7 3 2 1v6c-.45-.5-.91-.99-1.38-1.5C260 230 260 230 258 230l-2 3-3-1v-2l-3 2h-4c-1.75 2-1.75 2-3 4h4v2c-6.04 1.26-11.75 2.24-17.93 1.97-2.07.03-2.07.03-4.3.52-3.11.57-6.01.64-9.18.64-1.28 0-2.55.01-3.86.01-1.38 0-2.77 0-4.15-.01-1.42 0-2.84 0-4.27.01-2.97 0-5.95 0-8.92-.01-3.82-.01-7.63 0-11.45 0-2.94.01-5.87.01-8.81 0-1.4 0-2.81 0-4.22.01-1.96 0-3.92-.01-5.89-.01h-3.38C158 241 158 241 156 240c-1.67.33-3.33.66-5 1l-1-1-3 1c-1.95-.25-3.88-.57-5.81-.94-7.03-1.16-14.08-1.73-21.19-1.06l-2 2c-2.98.19-5.86.26-8.84.23h-2.66c-1.86 0-3.72-.01-5.58-.02-2.84-.02-5.69-.02-8.54-.02-1.8-.01-3.6-.02-5.41-.02-.85 0-1.7 0-2.58-.01-3.37-.02-6.17-.09-9.39-1.16-1.89-.2-3.79-.36-5.69-.5-13.39-1.04-13.39-1.04-16.31-2.5-2.03 0-4.05 0-6.08.02-3.61-.02-7.2-.15-10.8-.33-1.27-.06-2.55-.12-3.86-.18-3.44-.54-4.15-.93-6.26-3.51l-3-1c-.16-.82-.16-.82-1-5l4-1c-.63-.06-1.25-.12-1.9-.18-.82-.09-1.63-.17-2.48-.26l-2.46-.24C17 225 17 225 15 224v-12c2.7-.23 5.4-.46 8.11-.68 2.68-.3 5.26-.75 7.89-1.32v-3.44c0-4.1.35-8.03.78-12.11C32 192 32 192 32 189c1.35-3.47 2.78-6.64 4.75-9.81.41-.72.83-1.45 1.25-2.19-.16-.33-.16-.33-1-2l3-1 2-2c2.62-.62 2.62-.62 5-1l-1-3c.19-.68.37-1.36.56-2.06.15-.64.29-1.28.44-1.94l-2-2c0-2.01.01-4.02.12-6.03C45 154 45 154 43 151c-.83-3.26-1.31-5.21-.06-8.38L44 141l-1-1c-.1-1.62-.13-3.25-.12-4.88-.01-.88-.01-1.76-.01-2.67C43 130 43 130 44 127c.84-3.08 1.38-6.16 1.88-9.31 1.01-6.22 2.25-12.37 3.53-18.54C50 96 50 96 50 93q1.47-1.53 3-3c.16-.5.16-.5 1-3h2c.25-1.07.49-2.14.75-3.25 1.3-3.89 2.46-4.96 5.25-7.75.75-3.25.75-3.25 1-6h6c.16-.5.16-.5 1-3 4.1-4.92 10.8-7.6 16.31-10.69.74-.41 1.48-.83 2.25-1.26 1.81-1.02 3.63-2.03 5.44-3.05-.47.01-.47.01-2.86.04-2.66-.03-4.6-.41-7.14-1.04-.33.16-.33.16-2 1v-2c-.93-.27-1.86-.54-2.81-.81-2.95-1.1-4.25-1.81-6.19-4.19l1 3-3-1-1-3c-.78-.14-1.57-.29-2.38-.44C65 43 65 43 63 42c-.25-.83-.49-1.65-.75-2.5-.21-.41-.21-.41-1.25-2.5-3.12-.81-3.12-.81-6-1 .64-.1 1.28-.21 1.94-.31.68-.23 1.36-.46 2.06-.69.16-.49.16-.49 1-3l-1-1c-.16-.33-.16-.33-1-2h2c.21-.37.21-.37 1.25-2.25 2.9-4.56 6.77-6.67 11.87-8.13 5.79-1.12 11.2.15 16.88 1.38.91.14 1.81.27 2.75.41C95 21 95 21 96.81 23.56c.2.4.2.4 1.19 2.44.33-.49.33-.49 2-3 .16.33.16.33 1 2 .17-.36.17-.36 1.06-2.15.45-.92.91-1.84 1.38-2.79.45-.91.9-1.83 1.37-2.77C106 15 106 15 107 14l-2-2c.99-.16.99-.16 6-1-.16-.5-.16-.5-1-3 .44-2.19.44-2.19 1-4m73 24 1 2zm1 4 1 3zm-81 14v3l2-2zm-13 1v1h5v-1zm126 0-1 2 3-1zm4 75 1 3zM44 133l1 2zm207 74 1 2zm-12 26 1 3 2-1z"/><path fill="#fdebbf" d="M114 49c1.93-.36 1.93-.36 4.3-.33.43 0 .43 0 2.63.01.93.03 1.86.05 2.82.07.95.01 1.9.03 2.88.04 2.79.05 5.58.13 8.37.21.71.02 1.42.03 2.15.05C154.17 49.47 171 55.84 184 67v2c.4.12.4.12 2.44.75C189 71 189 71 189.81 73.12c.06.62.13 1.24.19 1.88h2v2h2c14.58 24.86 14.58 24.86 11 39-1.12 2.37-2.32 3.95-4 6-.35 1.33-.69 2.66-1 4-.66 1.6-1.35 3.18-2.06 4.75-.36.8-.73 1.6-1.1 2.42-.28.61-.55 1.21-.84 1.83h-2l-1 3c-2.75 1.31-2.75 1.31-6 2-.77-.31-1.54-.62-2.34-.94-5.69-2.27-13.04-2-18.78.13-2.88 1.81-2.88 1.81-4.32 4.06-.98 4.78-.84 9.07.44 13.75-.62.1-1.23.2-1.87.3-14.76 2.6-14.76 2.6-18.52 7.52-.39.63-.77 1.27-1.17 1.93-1.13 1.83-1.13 1.83-2.44 3.25-2.88.67-4.99.33-8 0h-4c5.77 2.17 11.34 2.62 17.44 3.14 4.25 1.03 5.82 2.53 8.56 5.86 2.1 4.2 1.54 9.44 1 14-2.77 3.95-5.46 5.62-10 7-3.54.37-7.06.43-10.62.44-.99 0-1.97.01-2.98.01-7.5-.12-13.07-1.21-19.4-5.45 1.84 4.16 4.02 5.74 8 8 4.56 1.29 9.12 1.11 13.81 1.06.79 0 1.58-.01 2.39-.01 1.93-.01 3.87-.03 5.8-.05-.11 1.58-.24 3.17-.38 4.75-.06.88-.13 1.76-.21 2.67-.41 2.58-1.19 4.3-2.41 6.58v2l-10 1v-2c-.56.33-1.12.65-1.7.99-2.57 1.13-4.27 1.24-7.07 1.21-.89-.01-1.77-.02-2.69-.02l-2.79-.06c-.94 0-1.87-.01-2.84-.02-2.3-.03-4.61-.06-6.91-.1v2c-1.73.2-3.46.38-5.19.56-.96.11-1.92.21-2.92.32-2.89.12-5.06-.28-7.89-.88-1.42-.14-2.84-.25-4.27-.36C50.99 220.23 50.99 220.23 41 209c-3.59-5.66-3.7-11.48-3-18 1.53-4.84 3.92-8.38 6.94-12.36C46 177 46 177 46.56 174.19c.07-.36.07-.36.44-2.19 1.32-.68 2.66-1.35 4-2 3.41-5.79 2.19-12.23 1-18.5-1.96-11.28-1.24-22.17.31-33.44.12-.86.24-1.72.36-2.61.76-5.04 1.93-9.7 3.65-14.5.61-1.76 1.09-3.58 1.56-5.39 2.68-8.49 7.07-16.79 13.37-23.12l2.2-2.26c2.96-2.53 6.14-4.33 9.55-6.18 1.16-.67 2.31-1.35 3.46-2.04C101.76 53 101.76 53 109 53v4h2c.06-.38.06-.38.38-2.31C112 52 112 52 114 49"/><path fill="#513818" d="m111 4 4 5V7c2-2 2-2 4-3v2c3.11 1.56 6.26.96 9.69.84C131 7 131 7 133 9l3 2c1.39 2.5 1.39 2.5 2.69 5.44.43.97.87 1.93 1.32 2.93C141 22 141 22 141 25h-2c.16.49.16.49 1 3-2.46 3.88-4.62 5.66-9 7v2c-4.15 1.47-8.14 2.86-12.5 3.56-.83.15-1.65.29-2.5.44-.16.33-.16.33-1 2h-2c5 .82 9.83 1.14 14.9 1.1.36 0 .36 0 2.19-.01 2.28 0 4.57-.01 6.85-.03 1.56 0 3.11-.01 4.67-.01 3.8-.01 7.59-.03 11.39-.05l2 4c1.05-.37 2.1-.74 3.19-1.12 3.81-.88 3.81-.88 6.69-.26C167 48 167 48 167.81 50.12c.06.62.13 1.24.19 1.88 3.75 1.13 3.75 1.13 6 0l1 3c3.06 1.69 3.06 1.69 6 3v2h5l1 3c1.33.67 2.67 1.34 4 2 11 11.84 11 11.84 11 18h3v-7h2c.02-.28.02-.28.11-1.72.46-5.4 1.55-9.4 3.89-14.28.33-.91.66-1.81 1-2.75 1.04-2.34 2.22-3.47 4-5.25v-3h-5l-1 2c-1.93.48-1.93.48-4.31.75l-2.37.3c-4.75-.1-8.58-3.33-12.32-6.05v-2l-5-1v-5h-2c-1.02-4.63-.96-8.35 0-13 .33-.49.33-.49 2-3l.94-2c1.12-2.11 2.23-3.47 4.06-5h2l1 1 2-1v2c.56.12 1.11.25 1.69.38 2.31.62 2.31.62 4.69 1.87 2.62.75 2.62.75 5.81-.56.93-.56 1.85-1.12 2.81-1.69 3.07-1.53 5.7-.55 9 0l1 3 3 1c.73 1.85.73 1.85 1.19 4.06.16.74.31 1.47.48 2.23q.165.84.33 1.71h2v3l-2-1v4c-1.02 2.11-1.02 2.11-2.38 4.19-.22.34-.22.34-1.33 2.1C221 43 221 43 219 44l2 3c.91-.31 1.81-.62 2.75-.94C227 45 227 45 229.31 44.5c.56-.16 1.12-.33 1.69-.5l1-2c6.62-1.56 11.76-.64 18 2 2.94 2 2.94 2 5 4 .58.43 1.15.87 1.75 1.31 1.96 2.65 1.95 5.47 2.25 8.69l3 1q.045 4.47.06 8.94l.03 2.57c0 .81 0 1.62.01 2.45 0 .75.01 1.5.01 2.27C262 77 262 77 261 78l.12 3.38C261 85 261 85 259.62 86.69c-.53.43-1.07.86-1.62 1.31l-.88 1.88c-1.53 2.89-3.81 4.81-6.12 7.12l-1 3h-2l-1 5h-3v-2l-2 2v2c-3 1-3 1-7 1-3 2-3 2-3.88 4-1.52 2.72-3.26 2.93-6.12 4-2.3 3.45-2.14 4.23-1.62 8.19.11.9.22 1.8.33 2.73.05.34.05.34.29 2.08h4v2l3 1 1 7h3l1 3-3 1 2 2-2 2c-.63 2.13-.63 2.13-1 4h-2l-1 2v-2h-2c.05-.68.09-1.35.14-2.05.04-.89.07-1.78.11-2.7.05-.88.09-1.76.14-2.67-.39-2.58-.39-2.58-1.93-4.92-3.37-2.28-6.15-1.92-10.02-1.47-.67.05-1.35.11-2.04.17-2.97.28-5.56.69-8.4 1.64-.08 1.44-.14 2.87-.19 4.31-.03.8-.07 1.6-.1 2.43.35 2.74 1.18 3.55 3.29 5.26-2.62.94-2.62.94-6 1-3.05-2.48-5.41-5.51-6.86-9.18-1.14-1.82-1.14-1.82-3.76-2.57-.79-.08-1.57-.16-2.38-.25.36.72.72 1.45 1.09 2.2.47.96.93 1.93 1.41 2.92.46.96.93 1.91 1.41 2.89 1.17 3.2 1.29 5.61 1.09 8.99l5 1-1 5q4.095.045 8.19.06l2.33.03c3.97.01 7.61-.1 11.48-1.09-.6.02-1.21.05-1.83.07-.8.02-1.6.04-2.42.05-.79.03-1.58.05-2.39.08-2.57-.22-4.15-.91-6.36-2.2.58-.01.58-.01 3.54-.08 1.55-.05 3.1-.11 4.65-.17.77-.01 1.54-.03 2.33-.04 5.06-.22 7.75-.98 11.48-4.71l-1 5-3 1v2c.5-.16.99-.33 1.5-.5 3.53-.71 6.9-.56 10.5-.5v10h-1v-6q-2.31-.075-4.62-.12c-.86-.03-1.72-.05-2.61-.08-2.77.2-2.77.2-8.77 2.2l-1 50h-2c-.03-.87-.05-1.74-.08-2.64-.09-3.3-.19-6.59-.29-9.89-.05-1.42-.09-2.83-.13-4.24-.26-9.1-.71-18.16-1.5-27.23-1.03.07-2.06.14-3.12.22-10.31.68-20.55.9-30.88.78 2.56-2.56 3.67-2.3 7.23-2.41l3.12-.12c.54-.02.54-.02 3.27-.09l3.3-.12c2.69-.1 5.39-.18 8.08-.26l-7-1v-1h15v-3l3-2c-.5.16-1 .31-1.51.48-3.45.72-6.86.82-10.37.9-.69.03-1.38.07-2.1.11-5.9.1-7.92-1.69-12.02-5.49-2.81.06-2.81.06-5 1l-1 2c-2.56.62-2.56.62-5 1l-2 6h-2c.21.68.41 1.36.62 2.06.48 3.73-.44 6.41-1.62 9.94h-1c-.19-13.04-.19-13.04 1-19l1-1-3-2c1.22-.19 2.43-.39 3.68-.59 1.59-.26 3.17-.52 4.76-.79.8-.12 1.6-.25 2.43-.38 2.06-.34 4.09-.79 6.13-1.24l1-2h2c-4.5-12.27-4.5-12.27-9-15-3.06-.4-3.06-.4-6.44-.38-1.11 0-2.22-.01-3.37-.02-3.54.44-5.43 1.16-8.19 3.4-.71 2.04-.71 2.04-.81 4.19-.06 1.26-.13 2.51-.19 3.81h2l-1 6h2l1-3 1 2-1 3-2.44-.06C164 160 164 160 163 161c-3.39.66-6.78 1.25-10.19 1.81-5.6.98-5.6.98-7.81 3.19v4l7 1v2l3 1v5l-1-4-1 1c.16.52.16.52 1 3.12.97 3.36 1.17 6.37 1 9.88h-1c-.2-.69-.41-1.37-.62-2.08l-.82-2.73c-.26-.9-.53-1.79-.81-2.71-.55-1.83-1.14-3.66-1.75-5.48-1.44-.29-2.87-.58-4.31-.88-.91-.18-1.82-.36-2.76-.55-2.87-.56-5.74-1.03-8.62-1.51-4.49-.8-8.22-2.06-12.31-4.06 3.68-1.23 5.88-.7 9.69-.06.59.09.59.09 3.57.59.45.08.45.08 2.74.47.3-.61.59-1.21.9-1.84 2.64-5.18 5.35-7.78 10.8-9.6 4.05-.98 8.14-1.31 12.3-1.56-.32-.59-.65-1.18-.98-1.79-1.82-3.96-1.4-7.83-.27-11.96 1.72-3.1 3.63-4.73 7.02-5.82 6.99-1.35 13.56-.71 20.23 1.57 4.52-.97 6.52-3.2 9-7 1.65-3.7 2.85-7.52 4.06-11.38C202 118 202 118 204 116c3.13-12.59-1.85-22.53-7.88-33.31-.4-.68-.81-1.36-1.24-2.05C194 79 194 79 194 77h-2v-2h-2l-1-3c-1.66-1.01-3.33-2.01-5-3-.72-.76-1.44-1.53-2.19-2.31-9.41-8.99-24.64-15.49-37.65-15.97-.46-.02-.46-.02-2.76-.11-.96-.04-1.92-.07-2.9-.11-8.19-.33-16.34-.78-24.5-1.5-1.38 2.66-2.37 5.06-3 8h-2v-4c-8.38 2.93-16.42 5.79-23.91 10.65C83 65 83 65 79.5 66.75 73.3 70.24 66.8 76.4 64 83l-.96 2.04C60.66 90.27 58.68 95.51 57 101c-.26.8-.52 1.59-.78 2.41-5.18 17.15-5.45 35.61-2.66 53.19.46 3.54.67 6.83.44 10.4-2.37 2.94-2.37 2.94-5 5h-2l-.12 3c-.58 4.29-2.76 6.87-5.5 10.11-3.5 4.81-2.8 11.22-2.38 16.89 1.45 5.53 3.9 8.45 8.46 11.65 4.09 2.17 8.42 3.32 12.88 4.49.44.14.44.14 2.66.86l1 2-4 1c.97.14 1.94.29 2.94.44C66 223 66 223 67 224c1.67.04 3.33.04 5 0l-1 3c-5.62.25-5.62.25-9-2-3.12-.62-6.23-1.15-9.38-1.59-6.25-1.07-8.82-4.01-12.5-8.91-1.16-1.72-2.31-3.44-3.47-5.16C35 207 35 207 32.5 204.5c-2.44-4.06-1.2-7.99-.5-12.5v-3c1.35-3.47 2.78-6.64 4.75-9.81.41-.72.83-1.45 1.25-2.19l-1-2 3-1 2-2c2.63-.62 2.63-.62 5-1l-1-3c.19-.68.37-1.36.56-2.06.15-.64.29-1.28.44-1.94l-2-2c0-2.01.01-4.02.12-6.03C45 154 45 154 43 151c-.83-3.26-1.31-5.21-.06-8.38.35-.53.7-1.07 1.06-1.62l-1-1c-.1-1.62-.13-3.25-.12-4.88-.01-.44-.01-.44-.01-2.67C43 130 43 130 44 127c.84-3.08 1.38-6.16 1.88-9.31 1.01-6.22 2.25-12.37 3.53-18.54C50 96 50 96 50 93q1.47-1.53 3-3c.16-.5.16-.5 1-3h2c.25-1.07.5-2.14.75-3.25 1.3-3.89 2.46-4.96 5.25-7.75.75-3.25.75-3.25 1-6h6c.16-.5.16-.5 1-3 4.1-4.92 10.8-7.6 16.31-10.69.74-.41 1.48-.83 2.25-1.26 1.81-1.02 3.63-2.03 5.44-3.05-.94.01-1.89.02-2.86.04-2.66-.03-4.6-.41-7.14-1.04-.33.16-.33.16-2 1v-2c-.93-.27-1.86-.54-2.81-.81-2.95-1.1-4.25-1.81-6.19-4.19l1 3-3-1-1-3c-.78-.14-1.57-.29-2.38-.44C65 43 65 43 63 42c-.25-.83-.5-1.65-.75-2.5-.41-.83-.83-1.65-1.25-2.5-3.13-.81-3.13-.81-6-1 .64-.1 1.28-.21 1.94-.31.68-.23 1.36-.46 2.06-.69l1-3-1-1-1-2h2c.41-.74.83-1.48 1.25-2.25 2.9-4.56 6.77-6.67 11.87-8.13 5.79-1.12 11.2.15 16.88 1.38.91.14 1.81.27 2.75.41C95 21 95 21 96.81 23.56c.2.4.2.4 1.19 2.44.33-.49.33-.49 2-3 .16.33.16.33 1 2 .17-.36.17-.36 1.06-2.15.45-.92.91-1.84 1.38-2.79.45-.91.9-1.83 1.37-2.77C106 15 106 15 107 14l-2-2c.99-.16.99-.16 6-1-.16-.5-.16-.5-1-3 .44-2.19.44-2.19 1-4m73 24 1 2zm1 4 1 3zm-81 14v3l2-2zm-13 1v1h5v-1zm126 0-1 2 3-1zm4 75 1 3zM44 133l1 2z"/><path fill="#fae6b8" d="M109 95c.1.64.21 1.28.31 1.94.23.68.46 1.36.69 2.06 3.62 1.21 4.64.54 8-1 .13 7.75.13 7.75-1 10l3 1c-.13.58-.27 1.16-.4 1.76-.81 3.56-1.57 7.06-2.1 10.68C117 124 117 124 115 126c-7.3.46-7.3.46-11-2 .16.5.16.5 1 3h6l1 2 1 1v2h-6c.1.72.21 1.44.31 2.19-.44 4.01-2.25 5.31-5.31 7.81-2.31.81-2.31.81-4 1l3 2q-2.19.045-4.38.06c-.4.01-.4.01-2.46.04C92 145 92 145 90 144v-2c-3.22.35-4.59.5-6.69 3.06-.43.64-.86 1.28-1.31 1.94h-2l-2 4-4-1-1 4h-2l.06 3.88c.06 3.87.06 3.87-1.06 6.12h-5c.52 2.76 1.11 5.33 2 8v2c.52.93 1.03 1.86 1.56 2.81 1.64 3.64 1.19 4.46.44 8.19.5.99.99 1.98 1.5 3 1.67 3.34 1.62 4.53.5 8h7c1.46 2.65 2 3.89 2 7h4l1 2c1.16.47 2.31.95 3.5 1.44 1.16.51 2.31 1.03 3.5 1.56l1 3 9 1c.16-.66.16-.66 1-4h2v-3c.78-.29 1.57-.58 2.38-.88C110 203 110 203 112 201c.71.49 1.42.98 2.16 1.48 3.13 1.67 4.85 1.87 8.36 1.81l3.1-.03c1.05-.02 2.11-.05 3.19-.07s2.15-.03 3.26-.04c2.64-.04 5.29-.09 7.93-.15-.11 1.58-.24 3.17-.38 4.75-.06.88-.13 1.76-.21 2.67-.41 2.58-1.19 4.3-2.41 6.58v2c-1.65.16-1.65.16-10 1v-2c-.28.16-.28.16-1.7.99-2.57 1.13-4.27 1.24-7.07 1.21-.89-.01-1.77-.02-2.69-.02l-2.79-.06c-.47 0-.47 0-2.84-.02-2.3-.03-4.61-.06-6.91-.1v2c-1.73.2-3.46.38-5.19.56-.96.11-1.92.21-2.92.32-2.89.12-5.06-.28-7.89-.88-1.42-.14-2.84-.25-4.27-.36C50.99 220.23 50.99 220.23 41 209c-3.59-5.66-3.7-11.48-3-18 1.53-4.84 3.92-8.38 6.94-12.36C46 177 46 177 46.56 174.19c.07-.36.07-.36.44-2.19 1.32-.68 2.66-1.35 4-2 3.41-5.79 2.19-12.23 1-18.5-1.79-9.99-1.67-20.5 0-30.5l3 1v-4h4v5l-3 1-1 7 9 1 1 4c4.75-.75 4.75-.75 7-3v2c.99-.16.99-.16 6-1l.18-1.93c.09-.83.17-1.66.26-2.51.08-.82.16-1.64.24-2.49C79 125 79 125 80 124c2.53-.24 5.03-.42 7.56-.56.36-.02.36-.02 2.16-.13 1.76-.11 3.52-.21 5.28-.31.16.33.16.33 1 2l6-1c-.31-.6-.62-1.2-.94-1.81C100 120 100 120 99 117h-4l.06-2.38C95 112 95 112 94 110c.64-.12 1.28-.25 1.94-.38.68-.2 1.36-.41 2.06-.62l1-2h2v-3h3l2-6h2z"/><path fill="#fdecc1" d="M136 51c17.54-1.08 29.47 2.67 44 13 .76.52 1.52 1.04 2.3 1.58.56.47 1.12.94 1.7 1.42v2c.8.25 1.61.5 2.44.75C189 71 189 71 189.81 73.12c.06.62.13 1.24.19 1.88h2v2h2c3.58 6.11 6.7 12.32 9.38 18.88.26.62.52 1.25.79 1.9 1.4 3.54 2.13 6.42 1.83 10.22h-2c-.2-.7-.41-1.4-.62-2.12l-.82-2.76c-.26-.9-.53-1.8-.81-2.74C201 98 201 98 200 96l-1 4h-2c-.16.33-.16.33-1 2l-2-3c-.5.16-.5.16-3 1-1.41.08-2.82.11-4.23.1-.8-.01-1.61-.01-2.43-.01l-2.53-.03c-.84 0-1.69-.01-2.56-.01-2.08-.01-4.17-.03-6.25-.05v5h-2l-1 3c-.12-1.13-.25-2.27-.38-3.44-.2-1.17-.41-2.35-.62-3.56-.33-.16-.33-.16-2-1v-3c-1.26-.21-2.52-.41-3.81-.62-.71-.12-1.42-.24-2.15-.36C159 96 159 96 156 98c-.92 2.75-1.11 4.36-1.06 7.19L155 109h-2c-1.11-4.68-.96-7.59 1-12 1.5-1.88 1.5-1.88 3-3h2c-.16-.66-.16-.66-1-4-2.94.38-2.94.38-6 1l-1 2-8-2-1 2v-3l-1 2c-.5-.16-.5-.16-3-1l-1-6-7-1 2-5 2 1 2-2 2 3c1-1 1-1 2-4v-4h-2l1-3 2-1-8-1c.8.89 1.61 1.77 2.44 2.69 2.26 2.69 3.24 4.73 3.56 8.31l-2 1-1-4-10-1-1-4 2-3h-2l-2 4c-2.43-3.64-2.16-5.71-2-10l5-2c2 2 2 2 2 5 .6-.33 1.2-.66 1.81-1 2.19-1 2.19-1 5.19-1v-3h-3l-1-3 3-2c1.19-2.12 1.19-2.12 2-4"/><path fill="#bbb252" d="M243 46.25c.66.07 1.32.13 2 .2 2.66.73 4.01 1.62 6 3.55 5.14 10.4 6.84 20.37 3.1 31.49-4.73 10.79-13.67 19.2-24.1 24.51h-2v-2l-2-1c-.14.4-.14.4-.88 2.44C224 108 224 108 222 109c-2.92 4.68-4.67 9.67-6 15h2l-.06 3.31C218 131 218 131 219 134h-4l3 2h-11v-2c-1.94.37-1.94.37-4 1-.16.33-.16.33-1 2h-2l1-5h4c-.06-.95-.12-1.89-.18-2.87 0-5.02 1.59-9.52 3.12-14.26l1.65-5.25c.25-.77.49-1.54.75-2.33.69-2.41 1.2-4.82 1.66-7.29h2q-.345-.96-.69-1.95c-2.45-7.69-2.44-14.1-1.31-22.05.09-.8.18-1.61.28-2.44 1.2-7.56 5.45-14.68 11.17-19.72 2.31-1.67 4.61-3.15 7.11-4.53.75-.41 1.49-.83 2.26-1.26 3.51-1.69 6.3-2.25 10.18-1.8"/><path fill="#6e5a29" d="m111 4 4 5V7c2-2 2-2 4-3v2c3.11 1.56 6.26.96 9.69.84C131 7 131 7 133 9l3 2c1.39 2.5 1.39 2.5 2.69 5.44.43.97.87 1.93 1.32 2.93C141 22 141 22 141 25h-2c.16.49.16.49 1 3-2.46 3.88-4.62 5.66-9 7v2c-4.15 1.47-8.14 2.86-12.5 3.56-.83.15-1.65.29-2.5.44-.16.33-.16.33-1 2h-2c4.72.77 9.22 1.1 14 1-3.34 3.34-8.05 2.79-12.62 3.24-3.78.85-4.86 1.95-7.38 4.76-2.5-.31-2.5-.31-5-1-1.34.33-2.67.66-4 1-1.66.09-3.33.13-5 .12-.42.01-.42.01-2.56.01C88 52 88 52 85.81 51.43 84 51 84 51 82 52v-2c-.93-.27-1.86-.54-2.81-.81-2.95-1.1-4.25-1.81-6.19-4.19l1 3c-.5-.16-.5-.16-3-1-.16-.5-.16-.5-1-3-.78-.14-1.57-.29-2.38-.44C65 43 65 43 63 42c-.25-.83-.49-1.65-.75-2.5-.41-.83-.83-1.65-1.25-2.5-3.12-.81-3.12-.81-6-1 .64-.1 1.28-.21 1.94-.31.34-.12.34-.12 2.06-.69l1-3-1-1-1-2h2c.41-.74.83-1.48 1.25-2.25 2.9-4.56 6.77-6.67 11.87-8.13 5.79-1.12 11.2.15 16.88 1.38.91.14 1.81.27 2.75.41C95 21 95 21 96.81 23.56c.2.4.2.4 1.19 2.44l2-3c.16.33.16.33 1 2 .17-.36.17-.36 1.06-2.15.45-.92.91-1.84 1.38-2.79.45-.91.9-1.83 1.37-2.77C106 15 106 15 107 14l-2-2 6-1c-.16-.5-.16-.5-1-3 .44-2.19.44-2.19 1-4m-7 42v3l2-2zm-13 1v1h5v-1z"/><path fill="#977339" d="M31 203c3.99 1.49 5.32 3.7 7.44 7.31 3.23 5.5 5.87 9.9 12.22 11.76 1.32.23 2.64.43 3.96.62 7.05 1.09 7.05 1.09 10.38 3.31 2.19-.38 2.19-.38 4-1-.57-.14-1.14-.29-1.73-.43-3.43-.86-6.85-1.71-10.27-2.57v-1c1.62-.22 3.25-.43 4.88-.62l2.74-.36c.78 0 1.57-.01 2.38-.02l2 2c1.98.71 3.98 1.39 6 2-.16.5-.16.5-1 3 3.95.05 7.9.09 11.85.11 2.01.01 4.02.04 6.02.07.63 0 .63 0 3.81.02l3.52.03C102 227 102 227 104 225c3.62-.12 3.62-.12 7 0v1h16c1.18-.52 2.35-1.03 3.56-1.56 4.54-1.76 7.71-1.37 12.44-.44-.58.12-1.16.25-1.75.38-2.27.63-4.18 1.51-6.25 2.62l8 2v2l-4 1c.66.16.66.16 4 1v5c6.08-.42 8.89-1.55 14-5 3.38-.25 3.38-.25 6 0-.66.16-.66.16-4 1 1 1 1 1 3.56 1.06L165 235l-2 4c1.9.03 3.79.05 5.69.06.53.01.53.01 3.2.04 2.84-.09 5.34-.5 8.11-1.1 6.56-.22 6.56-.22 9 1v2c-4.38.02-8.76.04-13.13.05l-4.47.03c-2.14.01-4.28.01-6.42.02-1.29 0-2.58.01-3.91.01C158 241 158 241 156 240c-1.67.33-3.33.66-5 1l-1-1-3 1c-1.95-.25-3.88-.57-5.81-.94-7.03-1.16-14.08-1.73-21.19-1.06l-2 2c-2.98.19-5.86.26-8.84.23h-2.66c-1.86 0-3.72-.01-5.58-.02-2.84-.02-5.69-.02-8.54-.02-1.8-.01-3.6-.02-5.41-.02-.85 0-1.7 0-2.58-.01-3.37-.02-6.17-.09-9.39-1.16-1.89-.2-3.79-.36-5.69-.5-13.39-1.04-13.39-1.04-16.31-2.5-2.03 0-4.05 0-6.08.02-3.61-.02-7.2-.15-10.8-.33l-3.86-.18c-3.44-.54-4.15-.93-6.26-3.51l-3-1c-.16-.82-.16-.82-1-5l4-1-1.9-.18c-.82-.09-1.63-.17-2.48-.26l-2.46-.24C17 225 17 225 15 224v-12c2.7-.23 5.4-.46 8.11-.68 2.68-.3 5.26-.75 7.89-1.32z"/><path fill="#594422" d="m153 44 2 4c1.05-.37 2.1-.74 3.19-1.12 3.81-.88 3.81-.88 6.69-.26C167 48 167 48 167.81 50.12c.06.62.13 1.24.19 1.88 3.75 1.12 3.75 1.12 6 0l1 3c3.06 1.69 3.06 1.69 6 3v2h5l1 3c1.33.67 2.67 1.34 4 2 11 11.84 11 11.84 11 18 .62.06 1.24.12 1.88.19 2.12.81 2.12.81 3.43 3.19C208 89 208 89 207 92l2 2-1 3c-.33.16-.33.16-2 1-3.6-3.48-6-6.79-8-11.38-.35-.79-.69-1.58-1.05-2.39-1.02-2.39-2.01-4.8-2.95-7.23h-2v-2h-2l-1-3c-1.66-1.01-3.33-2.01-5-3-.72-.76-1.44-1.53-2.19-2.31-9.41-8.99-24.64-15.49-37.65-15.97-.46-.02-.46-.02-2.76-.11-.96-.04-1.92-.07-2.9-.11-8.19-.33-16.34-.78-24.5-1.5-1.38 2.66-2.37 5.06-3 8h-2v-4c-8.38 2.93-16.42 5.79-23.91 10.65C83 65 83 65 79.5 66.75 73.3 70.24 66.8 76.4 64 83l-.96 2.04C60.66 90.27 58.68 95.51 57 101c-.26.8-.52 1.59-.78 2.41-5.18 17.15-5.45 35.61-2.66 53.19.46 3.54.67 6.83.44 10.4-2.38 2.94-2.38 2.94-5 5h-2l-.12 3c-.58 4.29-2.76 6.87-5.5 10.11-3.5 4.81-2.8 11.22-2.38 16.89 1.45 5.53 3.9 8.45 8.46 11.65 4.09 2.17 8.42 3.32 12.88 4.49.44.14.44.14 2.66.86l1 2-4 1c.97.14 1.94.29 2.94.44C66 223 66 223 67 224c1.67.04 3.33.04 5 0l-1 3c-5.62.25-5.62.25-9-2-3.12-.62-6.23-1.15-9.38-1.59-6.25-1.07-8.82-4.01-12.5-8.91-1.16-1.72-2.31-3.44-3.47-5.16C35 207 35 207 32.5 204.5c-2.44-4.06-1.2-7.99-.5-12.5v-3c1.35-3.47 2.78-6.64 4.75-9.81.41-.72.83-1.45 1.25-2.19l-1-2 3-1 2-2c2.62-.62 2.62-.62 5-1l-1-3c.19-.68.37-1.36.56-2.06.15-.64.29-1.28.44-1.94l-2-2c0-2.01.01-4.02.12-6.03C45 154 45 154 43 151c-.83-3.26-1.31-5.21-.06-8.38.35-.53.7-1.07 1.06-1.62l-1-1c-.1-1.62-.13-3.25-.12-4.88-.01-.44-.01-.44-.01-2.67C43 130 43 130 44 127c.84-3.08 1.38-6.16 1.88-9.31 1.01-6.22 2.25-12.37 3.53-18.54C50 96 50 96 50 93q1.47-1.53 3-3l1-3h2c.25-1.07.5-2.15.75-3.25 1.3-3.89 2.46-4.96 5.25-7.75.75-3.25.75-3.25 1-6h6c.16-.5.16-.5 1-3 7.05-8.46 23.24-15.54 33.9-16.88 1.7-.1 3.4-.12 5.1-.12l2-3c2.59-.75 4.98-1.27 7.62-1.69.78-.12 1.55-.25 2.35-.38 10.61-1.55 21.34-1.2 32.03-.93M44 133l1 2z"/><path fill="#6e4f28" d="M230 134c.88.42 1.76.84 2.67 1.28 1.16.55 2.32 1.09 3.52 1.66 1.15.54 2.29 1.09 3.48 1.65 3.33 1.41 3.33 1.41 6.09 1.96 4.17.84 6.4 4.47 9.05 7.57C256 150 256 150 256 153h2c-.16.5-.16.5-1 3h-2c.19 1.11.37 2.23.56 3.38C256 163 256 163 255 165h-2c.23 1.09.45 2.19.69 3.31.1 1.22.2 2.44.31 3.69-.47.44-.95.89-1.44 1.34-2.29 2.44-2.07 4.56-2.25 7.85-.06 1.08-.13 2.17-.2 3.29-.03.83-.07 1.66-.11 2.52h-1c-.06-1.02-.12-2.05-.18-3.11-.09-1.36-.17-2.72-.26-4.08-.04-.67-.08-1.34-.12-2.04-.23-3.67-.61-7.19-1.44-10.77-1.35 5.03-1.06 10.03-1 15.19v5.91c-.01 2.87 0 5.74.05 8.61.25 13.84.25 13.84-3.05 17.51-2.99 1.72-5.53 2.78-9 2.78v-51h2l1-4-12 1v-2l3-2v-3c-.58.64-1.16 1.28-1.75 1.94-4.93 3.13-9.45 2.81-15.25 3.06h12l-1 2c-4.94.99-9.78 1.14-14.81 1.12-1.31.01-2.61.01-3.96.01C200 164 200 164 198 163v-3l-2-1 1-1-4-1c-.04-.58-.07-1.16-.11-1.76-.43-5.09-1.35-8.71-3.89-13.24v-2c2.23-.34 2.23-.34 5 0 2.24 2.41 2.24 2.41 4.31 5.5l2.12 3.09c.52.8 1.03 1.59 1.57 2.41l4-1-2-2c-.67-6.07-.67-6.07 1.56-9.16 3.3-2.48 5.78-2.61 9.88-2.9 1.3-.12 2.59-.23 3.93-.35 3.63.41 3.63.41 6.61 2.58 2.02 2.83 2.02 2.83 2.29 5.51-.15.87-.3 1.74-.46 2.63-.14.89-.27 1.77-.42 2.68q-.195.99-.39 2.01h5c1.33-6.33 1.33-6.33 0-9l3-1c-.16-.33-.16-.33-1-2h-2z"/><path fill="#fdebbf" d="M92.94 62.25c.34.12.34.12 2.06.75l-1 5h-2c.17.5.17.5 1 3h-2l-1 5c-.16-.5-.16-.5-1-3l-2-1c0 4 0 4 1 7-.44 2.69-.44 2.69-1 5-2-1-2-1-2.63-2.85-.16-.73-.33-1.46-.49-2.21-.17-.74-.34-1.47-.51-2.23-.12-.56-.24-1.13-.37-1.71l-5 1v2h-2c.21.6.41 1.2.63 1.81C77 82 77 82 75 85v3c-1.5 1.69-1.5 1.69-3 3 .64.1 1.28.21 1.94.31.68.23 1.36.46 2.06.69l1 3 2 1 1 3c3.03-.59 6.02-1.23 9-2 2 3 2 3 2.38 5.56.2.81.41 1.61.62 2.44 1.94 1.13 1.94 1.13 4 2l2 3-3 1 3 2h-3v4h4l1 2 2-3c.3 6.05.3 6.05 0 8-3 2-3 2-6 1.69-3-.69-3-.69-6-1.69-1.73.08-3.46.24-5.18.44-.8.09-.8.09-4.82.56l-1 10-3.75-.06c-2.93-.01-5.43.19-8.25 1.06h-2l-1-3-9-1c-1.26-4.29-.63-6.88 1-11l1 2h2v-5h-4v4h-2c-.68-8.37 1.34-15.13 4-23l.94-3.69c2.72-8.49 7.13-16.68 13.5-22.94.76-.75 1.52-1.51 2.31-2.28 4.01-3.72 4.01-3.72 6.25-5.09l3 1c1.75-1.03 3.49-2.07 5.22-3.14C90 62 90 62 92.94 62.25"/><path fill="#fce5b5" d="M199 93c4.58 6.86 7.24 14.69 6 23-1.94 3.25-1.94 3.25-4 6-.35 1.33-.69 2.66-1 4-.66 1.6-1.35 3.18-2.06 4.75-.36.8-.73 1.6-1.1 2.42-.28.61-.55 1.21-.84 1.83h-2l-1 3c-2.75 1.31-2.75 1.31-6 2-.77-.31-1.54-.62-2.34-.94-5.69-2.27-13.04-2-18.78.13-3.2 2.01-4 3.19-4.88 6.81-.16-.5-.16-.5-1-3l-6-1 1-3h3l-1-7h2c.12-.58.25-1.16.38-1.75.63-2.27 1.51-4.18 2.62-6.25h5l1 3v-5h-6v-3l-2-1v-2c.57-.12 1.13-.24 1.71-.37.74-.16 1.47-.33 2.23-.51.73-.16 1.46-.32 2.21-.49C168 114 168 114 169 112c-.5.35-.99.7-1.5 1.06-3.65 1.37-6.8 1.14-10.5-.06-2.66-2.82-2.96-4.65-3.38-8.5.41-3.78.86-5.65 3.38-8.5 3.31-1.06 5.13-1.34 8.38-.06.53.35 1.07.7 1.62 1.06v3l3 1c.69 2.06.69 2.06 1 4h2l-1-3c1-1.49 1-1.49 3-3 2.73-.19 5.23-.24 7.94-.12 4.18.12 8 .24 12.06-.88 2.25.94 2.25.94 4 2z"/><path fill="#af5b40" d="M191.5 160.75c2.5 1.25 2.5 1.25 3.67 2.81 2.91 2.28 6.11 1.79 9.64 1.69.7-.01 1.4-.01 2.12-.02 4.11-.06 8.04-.44 12.07-1.23l-2 3h-3l-1 5c-6.3 1.06-12.56 1.32-18.94 1.56-.53.02-.53.02-3.23.13-2.61.11-5.22.21-7.83.31 8.92.12 17.73-.06 26.63-.73 1.79-.13 3.58-.2 5.37-.27 1.93 1.93 1.44 5.36 1.62 7.94.1 1.26.2 2.53.29 3.84C217 188 217 188 216 190c-2.66.63-5.25 1.13-7.94 1.56-.78.13-1.55.26-2.35.39-9.99 1.63-19.59 2.19-29.71 2.05-.12-5.75-.12-5.75 1-8h-2v41h-5v-2l-6-2c-.07-7.4-.12-14.79-.16-22.19-.01-3.44-.03-6.87-.07-10.31-.04-3.94-.05-7.89-.06-11.84-.02-1.23-.03-2.47-.05-3.74v-3.46c-.01-1.01-.01-2.02-.02-3.06.12-.79.24-1.58.36-2.4 3.67-2.45 5.66-2.32 10-2l2 2c-.3 1.67-.65 3.34-1 5-.1 3.01-.04 5.99 0 9l1-9h2l2-6 5-1 1-3c3-1 3-1 5.5-.25"/><path fill="#936632" d="M250 196c2.01 4.03 2.1 5.68 2 10l1 1 2-2c-.08.76-.17 1.53-.25 2.31.25 2.69.25 2.69 2.25 4.38.33.21.33.21 2 1.31v2l4-2 2 2h-2c.45.39.91.78 1.38 1.19 1.9 2.12 2.68 4.14 3.62 6.81l-7 3 2 1v6c-.45-.5-.91-.99-1.38-1.5C260 230 260 230 258 230l-2 3c-.5-.16-.5-.16-3-1v-2l-3 2h-4c-1.75 2-1.75 2-3 4h4v2c-6.04 1.26-11.75 2.24-17.93 1.97-2.07.03-2.07.03-4.22.53-3.53.62-6.98.62-10.56.6-.36 0-.36 0-2.2-.01q-3.45 0-6.9-.03c-1.57 0-3.14-.01-4.7-.01-3.83-.01-7.66-.03-11.49-.05v-2c-5.05-.11-9.86.06-14.87.78-4.03.42-8.08.29-12.13.22l-1-3c.33-.16.33-.16 2-1h-4v-2c-2.97 1.12-5.33 2.22-8 4-2.04.2-2.04.2-4.19.12L143 238v-5l-6-1v-1h6v-2c-.91.06-1.81.12-2.75.19-3.54-.21-4.7-.84-7.25-3.19 6.29-2.43 6.29-2.43 10-1v-3l7 1v1h-5v2h12l-1 3 1.72-.03c2.62-.04 5.23-.07 7.84-.09l2.72-.06c5.32-.03 9.68.43 14.72 2.18v3c.56-.16 1.12-.33 1.7-.49 2.44-.54 4.58-.62 7.07-.61.89.01 1.77.01 2.69.01l2.79.03a1591.73 1591.73 0 0 1 9.75.06v-2l9-2v-2c.86-.25 1.71-.51 2.6-.77 8.73-2.63 16.41-5.53 24.29-10.14C245 215 245 215 249 214zm1 11 1 2zm-12 26 1 3 2-1z"/><path fill="#db8762" d="M216 192v32c-10 4-10 4-16 5l-1-17-1 17c-7.44.17-13.81-.08-21-2-1.21-10.66-1.1-21.28-1-32 .8.02 1.6.03 2.43.05 3.67.06 7.34.1 11.01.14.63.01.63.01 3.82.07 6.46.05 11.97-.12 17.99-2.61C213 192 213 192 216 192"/><path fill="#9b5c30" d="m193 15 1 1 2-1v2c.56.12 1.11.25 1.69.38 2.31.62 2.31.62 4.69 1.87 2.62.75 2.62.75 5.81-.56.93-.56 1.85-1.12 2.81-1.69 3.07-1.53 5.7-.55 9 0 .16.5.16.5 1 3l3 1c.73 1.85.73 1.85 1.19 4.06.16.74.31 1.47.48 2.23q.165.84.33 1.71h2v3l-2-1v4c-1.02 2.11-1.02 2.11-2.38 4.19-.44.69-.88 1.39-1.33 2.1C221 43 221 43 219 44l2 3 2-1 3 2c-2.95 1.8-5.89 3.5-9 5-.16-.66-.16-.66-1-4h-5l-1 2c-1.93.48-1.93.48-4.31.75l-2.37.3c-4.75-.1-8.58-3.33-12.32-6.05v-2l-5-1v-5h-2c-1.02-4.63-.96-8.35 0-13l2-3c.15-.33.15-.33.94-2 1.47-2.78 2.74-5 6.06-5m-9 13 1 2zm1 4 1 3zm32 15-1 2 3-1z"/><path fill="#fde8ba" d="M109 95c.05.32.05.32.31 1.94.23.68.46 1.36.69 2.06 3.62 1.21 4.64.54 8-1 .12 7.75.12 7.75-1 10l3 1c-.13.58-.27 1.16-.4 1.76-.81 3.56-1.57 7.06-2.1 10.68C117 124 117 124 115 126c-7.3.46-7.3.46-11-2 .16.5.16.5 1 3h6l1 2 1 1v2h-6l.31 2.19c-.44 4.01-2.25 5.31-5.31 7.81-2.31.81-2.31.81-4 1l3 2q-2.19.045-4.38.06c-.4.01-.4.01-2.46.04C92 145 92 145 90 144v-2c-3.22.35-4.59.5-6.69 3.06-.43.64-.86 1.28-1.31 1.94h-2l-2 4-4-1-1 4h-2l-1 2c-2-3-2-3-1.56-5.44.18-.84.37-1.69.56-2.56-.17-.62-.34-1.23-.52-1.87-.58-2.55-.26-4.22.33-6.75.17-.78.35-1.56.52-2.36C70 135 70 135 72 133v2c.99-.16.99-.16 6-1l.18-1.93c.09-.83.17-1.66.26-2.51.08-.82.16-1.64.24-2.49C79 125 79 125 80 124c2.53-.24 5.03-.42 7.56-.56.36-.02.36-.02 2.16-.13 1.76-.11 3.52-.21 5.28-.31l1 2 6-1c-.31-.6-.62-1.2-.94-1.81C100 120 100 120 99 117h-4l.06-2.38C95 112 95 112 94 110c.64-.12 1.28-.25 1.94-.38.68-.2 1.36-.41 2.06-.62l1-2h2v-3h3l2-6h2z"/><path fill="#d57b5c" d="M177.38 139.69c.56-.02.56-.02 3.4-.11 3.93.52 5.45 1.64 8.22 4.42 1.37 2 1.37 2 2.32 4 .16.33.16.33.99 2 .69 2 .69 2 .69 6h-2c-.16.5-.16.5-1 3-2.47.5-2.47.5-15 3v1c-.36.03-.36.03-2.19.15-5.22.4-9.9.87-14.81 2.85-.33-.33-.65-.66-1-1-.33 1.16-.33 1.16-2 7h2v-5l4 1c.85 2.9 1.09 5.34.95 8.35-.03.82-.07 1.65-.11 2.5l-.15 2.65c-.04.91-.09 1.81-.14 2.75-.26 4.64-.68 9.12-1.61 13.69-1.73 8.86-1.1 18.08-.94 27.06-2.12-.47-4.25-.95-6.37-1.43-1.18-.27-2.37-.54-3.59-.81C146 222 146 222 144 221c-1.37-5.82-1.09-12.06-1-18 1.06-.41 2.11-.82 3.19-1.25 3.41-1.46 6.09-3.19 8.81-5.75 1.16-3.45 1.17-6.23 1.19-9.87.01-.61.01-.61.05-3.68-.23-3.32-.7-5.52-2.24-8.45-.65-.33-1.31-.66-2-1v-2h-7c-.68-2.31-.68-2.31-1-5 1.8-2.87 3.36-3.09 6.69-3.91 1.44-.25 2.88-.49 4.31-.71 7.78-1.3 7.78-1.3 11-2.38 1 .33 1.98.66 3 1v-4c-.32.66-.65 1.32-1 2h-2l1-6h-2c-.36-7.46-.36-7.46 1.32-9.93 3.57-2.26 6.94-2.29 11.06-2.38"/><path fill="#ecd4a2" d="M52 171c2 2 2 2 2 5h2c.04.31.04.31.25 1.88.25.7.5 1.4.75 2.12l2 .94 2 1.06c.75 2.62.75 2.62 1 5l6 1v2l-5 2 1 7h3l2 9 4 1-3 3c1.72 0 3.34-.57 5-1 .84 1.31 1.67 2.62 2.5 3.94.46.73.93 1.46 1.41 2.21C80 219 80 219 80 220h-5v2c-26.76-4.43-26.76-4.43-35-14-2.81-5.16-2.54-11.25-2-17 1.52-4.8 3.87-8.48 6.91-12.42C46 177 46 177 47 174c2.56-1.69 2.56-1.69 5-3"/><path fill="#766e27" d="M244 52c4.33 3.22 4.99 7.86 5.74 12.97.91 10.64-1.13 19.12-7.74 27.59-2.33 1.68-4.18 2.06-7 2.44l-1 1c-3.38.75-3.38.75-7 1-1.81-1.31-1.81-1.31-3-3l-2-2c-3.05-3.05-4.29-5.76-4.31-10.06.26-9.34 3.08-17.9 9.31-24.94 4.97-4.48 10.33-6.57 17-5"/><path fill="#4d2d15" d="M175.94 136.81c1.02-.01 2.04-.03 3.09-.04 3.85.3 6.63 1.14 9.65 3.58 3.84 4.78 5.95 10.52 5.32 16.65l5 1c-.16.82-.16.82-1 5l8.19.06 2.33.03c3.97.01 7.61-.11 11.48-1.09-.6.02-1.2.04-1.83.07-.4.01-.4.01-2.42.05-.39.01-.39.01-2.39.07-2.56-.21-4.15-.91-6.36-2.19 1.17-.03 2.34-.05 3.55-.08 1.54-.06 3.09-.11 4.64-.17.38-.01.38-.01 2.33-.05 5.06-.21 7.76-.97 11.48-4.7-.16.82-.16.82-1 5-.49.16-.49.16-3 1v2c.5-.17.99-.33 1.5-.5 3.54-.71 6.9-.56 10.5-.5v10h-1v-6c-1.54-.06-3.08-.1-4.62-.13-.86-.02-1.72-.04-2.6-.07-2.78.2-2.78.2-8.78 2.2l-1 50h-2c-.02-.87-.05-1.74-.07-2.64l-.3-9.89-.12-4.25c-.27-9.1-.71-18.15-1.51-27.22-.51.03-.51.03-3.12.22-10.31.68-20.55.89-30.88.78 2.56-2.56 3.67-2.3 7.23-2.42 1.03-.04 2.06-.07 3.12-.11 1.08-.03 2.16-.07 3.28-.1.54-.02.54-.02 3.29-.11 2.7-.1 5.39-.18 8.08-.26l-7-1v-1h15v-3l3-2c-.5.15-.99.31-1.51.47-3.44.73-6.85.83-10.36.9l-2.11.12c-5.9.1-7.91-1.69-12.02-5.49-2.81.06-2.81.06-5 1l-1 2c-2.56.62-2.56.62-5 1l-2 6h-2c.21.68.41 1.36.63 2.06.47 3.73-.45 6.41-1.63 9.94h-1c-.19-13.04-.19-13.04 1-19l1-1-3-2c1.22-.2 2.43-.39 3.69-.59 1.58-.26 3.17-.52 4.75-.79.8-.12 1.6-.25 2.43-.38 2.06-.35 4.1-.79 6.13-1.24l1-2h2c-4.5-12.27-4.5-12.27-9-15-3.06-.4-3.06-.4-6.44-.38-.55 0-.55 0-3.37-.02-3.53.44-5.43 1.16-8.19 3.4-.7 2.04-.7 2.04-.81 4.19L165 152h2l-1 6h2c.17-.5.17-.5 1-3 .17.33.17.33 1 2-.16.49-.16.49-1 3-.8-.02-1.61-.04-2.44-.07C164 160 164 160 163 161c-3.39.65-6.78 1.24-10.18 1.8-5.6.98-5.6.98-7.82 3.2v4c1.16.16 1.16.16 7 1v2c.5.16.5.16 3 1v5c-.16-.66-.16-.66-1-4l-1 1 1 3.12c.97 3.36 1.17 6.37 1 9.88h-1c-.2-.69-.41-1.38-.62-2.08-.27-.91-.54-1.81-.82-2.73-.26-.9-.53-1.79-.8-2.71-.56-1.84-1.15-3.66-1.76-5.48-1.43-.3-2.87-.59-4.31-.88-.91-.18-1.82-.37-2.76-.56-2.86-.55-5.74-1.03-8.61-1.5-4.5-.8-8.22-2.06-12.32-4.06 3.68-1.23 5.88-.71 9.69-.07 1.18.2 2.36.39 3.57.59l2.74.48c.3-.61.6-1.22.9-1.84 2.64-5.18 5.35-7.79 10.8-9.6 4.05-.99 8.15-1.32 12.3-1.56-.32-.59-.65-1.18-.98-1.79-1.82-3.96-1.39-7.83-.27-11.96 1.72-3.1 3.63-4.73 7.01-5.82 2.76-.53 5.37-.6 8.18-.62"/><path fill="#dab272" d="M231 165c1.54 18.39 1.03 36.59 0 55-3.62 1.32-6.1 2-10 2-4.63-9.27-2.11-25.13-2.06-35.31 0-1.82.01-3.64.01-5.46.01-4.41.03-8.82.05-13.23 7.58-3.4 7.58-3.4 12-3"/><path fill="#ebd3a2" d="M111 201c.37.25.37.25 2.26 1.49 4.9 2.45 10.27 1.83 15.62 1.7 1.06-.02 2.13-.03 3.24-.04 2.63-.04 5.25-.09 7.88-.15-.11 1.58-.24 3.17-.38 4.75-.06.88-.13 1.76-.21 2.67-.41 2.58-1.19 4.3-2.41 6.58v2l-10 1v-2c-.56.33-1.11.67-1.69 1.02-2.75 1.17-4.35 1.06-7.31.74-.96-.1-1.93-.2-2.92-.3-1.02-.11-2.03-.22-3.08-.34-7.41-.74-14.63-1.34-22.09-1.09C88 219 88 219 87 218a77 77 0 0 1-.06-4.56c.01-.83.02-1.66.02-2.51.02-.63.03-1.27.04-1.93.83.16.83.16 5 1v2h2v2l9-2c.23-1.11.45-2.23.69-3.38 1.31-3.62 1.31-3.62 3.87-4.93.81-.23 1.61-.46 2.44-.69z"/><path fill="#da8061" d="M243 156c1.68 4.43 2.3 8.23 2.45 12.95.02.66.04 1.31.07 1.98.07 2.11.12 4.21.17 6.32.01.72.03 1.43.05 2.17.08 3.57.15 7.14.2 10.71.04 2.35.08 4.7.15 7.05.32 13.29.32 13.29-3.09 17-2.99 1.77-5.52 2.82-9 2.82v-51h2l1-4c-1.98.16-1.98.16-12 1v-2c5.48-5.05 10.82-5.66 18-5"/><path fill="#fbeabe" d="m165 96 2 1v3l3 1v10h2c-.03.74-.07 1.47-.11 2.23-.15 5.67-.1 8.95 3.11 13.77-.81 2.31-.81 2.31-2 4l2 2-8-1c-.16-.5-.16-.5-1-3h-3l-1 3 2 1v4c.55-.16.55-.16 3.31-1 5.22-1.33 10.34-1.18 15.69-1v-4h2v-2l11 1 2-4c1 3 1 3-.44 6.19-.51.93-1.03 1.85-1.56 2.81h-2l-1 3c-2.75 1.31-2.75 1.31-6 2-.77-.31-1.54-.62-2.34-.94-5.69-2.27-13.04-2-18.78.13-3.2 2.01-4 3.19-4.88 6.81-.16-.5-.16-.5-1-3l-6-1 1-3h3l-1-7h2c.12-.58.25-1.16.38-1.75.63-2.27 1.51-4.18 2.62-6.25h5l1 3v-5h-6v-3l-2-1v-2c.57-.12 1.13-.24 1.71-.37.74-.16 1.47-.33 2.23-.51.73-.16 1.46-.32 2.21-.49C168 114 168 114 169 112c-.5.35-.99.7-1.5 1.06-3.65 1.37-6.8 1.14-10.5-.06-2.66-2.82-2.96-4.65-3.38-8.5.4-3.7 1.14-5.57 3.38-8.5 2.88-1.44 4.91-.64 8 0"/><path fill="#eed493" d="m174 164 2 2c-.27 1.68-.62 3.34-1 5-.08 1.9-.12 3.81-.11 5.71v3.39c0 1.2.01 2.4.01 3.64 0 1.23.01 2.47.01 3.74 0 3.28.01 6.55.02 9.82.01 3.35.02 6.69.02 10.04.01 6.55.03 13.11.05 19.66h-5v-2l-6-2c-.07-7.4-.12-14.79-.16-22.19-.01-3.44-.03-6.87-.07-10.31-.04-3.94-.05-7.89-.06-11.84-.02-1.23-.03-2.47-.05-3.74v-3.46c-.01-1.01-.01-2.02-.02-3.06.12-.79.24-1.58.36-2.4 3.67-2.45 5.66-2.32 10-2"/><path fill="#baaf52" d="M90.19 25.79c2.63 1.75 4.67 3.89 6.81 6.21.46.33.46.33 2.75 2 2.66 2.36 2.74 3.59 3.25 7-9.73 3-17.16 3.96-27 1-.8-.22-1.6-.44-2.43-.66-.81-.24-1.61-.47-2.44-.72-.74-.21-1.48-.43-2.24-.65-2.4-1.24-2.92-2.51-3.89-4.97h-2c1.47 3.87 3.5 4.97 7 7v2c-4.75-.88-4.75-.88-7-2-.12-.42-.12-.42-.75-2.5-.41-.83-.82-1.65-1.25-2.5-3.12-.82-3.12-.82-6-1 .64-.11 1.28-.21 1.94-.32.34-.11.34-.11 2.06-.68l1-3-1-1-1-2c4.88 1.75 4.88 1.75 6 4 .13-.91.25-1.82.38-2.75 2.17-4.36 4.48-5.03 8.97-6.56 6.29-1.65 11.12-1.06 16.84 2.1"/><path fill="#fae9be" d="M92.94 62.25c.34.12.34.12 2.06.75l-1 5h-2l1 3h-2l-1 5-1-3-2-1c0 4 0 4 1 7-.44 2.69-.44 2.69-1 5-2-1-2-1-2.63-2.85-.16-.73-.33-1.46-.49-2.21-.17-.74-.34-1.47-.51-2.23-.12-.56-.24-1.13-.37-1.71l-5 1v2h-2c.21.6.41 1.2.63 1.81C77 82 77 82 75 85v3c-1.5 1.69-1.5 1.69-3 3 .64.1 1.28.21 1.94.31.34.12.34.12 2.06.69l1 3 2 1c.73 1.98 1.4 3.98 2 6l-2 2-1-3c-.99.16-.99.16-6 1v3c-.49.16-.49.16-3 1 .21.58.41 1.16.63 1.75.49 2.93-.02 3.76-1.63 6.25-1.58 2.12-3.21 4.03-5 6h-2q.345-.9.69-1.83c.29-.8.58-1.6.87-2.42.3-.79.59-1.58.88-2.39.62-2.61.42-3.86-.44-6.36-1.73-5.29-2.19-9.5-2-15l1 2c2.65-2.58 4.95-4.92 7-8l-3 2-1-3-2-2c4.07-6.89 10.14-13.8 17-18l3 1c1.75-1.03 3.49-2.07 5.22-3.14C90 62 90 62 92.94 62.25"/><path fill="#f1daaa" d="M56 177c1.16.5 1.16.5 7 3v3c.93.21 1.86.41 2.81.62C69 185 69 185 70.94 187.81c1.11 3.34 1.13 4.89.06 8.19h7c1.46 2.65 2 3.89 2 7h4l1 2c1.16.47 2.31.95 3.5 1.44 1.16.51 2.31 1.03 3.5 1.56.16.5.16.5 1 3l9 1 2-4v5c-3.47 1.16-6.36 1.07-10 1v-2h-2v-2l-5-1 1 9c.73-.02 1.46-.05 2.21-.07 9.72-.17 19.16.86 28.79 2.07v1h-16v2c-9.56 1.53-18.51.35-28-1v-2c.66-.16.66-.16 4-1-.75-2.94-.75-2.94-2-6-2-1-2-1-4-1l-2 2-2-3 3-2-3-1c-1.02-2.33-2.01-4.66-3-7l-3-2c-.7-2.66-.78-5.24-1-8l6-1v-2l-2.88.12C62 188 62 188 60 186v-4l-4-2z"/><path fill="#fceabd" d="M146 120c2.69.31 2.69.31 5 1-1.35 4.04-3.42 4.85-7 7-3.01 1-5.04 1.1-8.19 1.06-.9-.01-1.8-.02-2.73-.02-.69-.02-1.37-.03-2.08-.04 4.78 1.59 8.57 1.65 13.19-.44.46-.26.46-.26 2.81-1.56 2.38-.69 2.38-.69 4-1 .1.6.21 1.2.31 1.81.78 2.47 1.76 3.51 3.69 5.19-.26.37-.26.37-1.56 2.25-1.68 3.2-1.33 3.48-.44 6.75-.75 3.19-.75 3.19-2 6l-3 1v2h3l1 4h7l-1 3c-1.65.16-1.65.16-10 1v-3h-2v-4c-2-1.75-2-1.75-4-3-.93.52-1.86 1.03-2.81 1.56C136 152 136 152 133 151c-1.19-2.06-1.19-2.06-2-4h4v-6h3v-2h-3v-2l-4 1-2-3 1-2-3-1v-2c-.83.5-.83.5-5 3-.62-1.88-.62-1.88-1-4l2-2h4v-3c3.24-.91 5.83-.98 9.12-.5 3.88.5 3.88.5 6.88-.5.45-.54.91-1.07 1.38-1.62.53-.46 1.07-.91 1.62-1.38"/><path fill="#594319" d="M235 46v2c-.59.3-1.18.61-1.79.92-4.79 2.54-8.68 4.88-12.21 9.08-.5.57-1.01 1.13-1.53 1.72-3.88 4.94-5.31 9.77-6.41 15.84-.13.71-.25 1.42-.39 2.15-.77 5.01-.47 9.28.33 14.29.33 2.67.67 5.33 1 8h-2c-.06 1.16-.12 2.31-.19 3.5-.57 5.44-2.26 10.43-4.08 15.56-1.64 4.83-1.95 8.84-1.73 13.94l-5-1-1 6c-1.54-1.24-1.54-1.24-3-3 .04-1.98.04-1.98.62-4.19.11-.39.11-.39.64-2.39 2.95-9.63 2.95-9.63 5.74-12.42 1.39-7.48 1.51-13.26-2-20l1-3h2l1 3 2-2-3-2 1-3c0-2.56-.26-5.07-.5-7.62-.09-1.01-.19-2.01-.28-3.04-.07-.77-.15-1.55-.22-2.34h2c.04-.57.07-1.14.11-1.72.46-5.4 1.55-9.4 3.89-14.28.13-.41.13-.41.76-2.47 1.62-3.31 3.48-4.35 6.62-6.22.95-.58 1.91-1.16 2.89-1.76 5.05-2.87 7.78-3.78 13.73-3.55"/><path fill="#999237" d="M132 13.88c2.97 3.16 3.52 5.58 3.48 9.95-.93 4.21-4.08 6.76-7.48 9.17-2.94.94-2.94.94-5 1 .66-.98 1.32-1.98 2-3-.62.5-1.24.99-1.88 1.5C121 34 121 34 119 34v2c-2.97 1.33-5.94 2.65-9 4-.17-.82-.17-.82-1-5h-2c-1.67-4.99-2.24-10.97-.2-15.94 5.26-7.17 17.71-9.86 25.2-5.18"/><path fill="#f7a27d" d="M195.38 21.31c3.72.7 4.23.87 6.5 3.56C204 28 204 28 205 30c.44-.79.87-1.57 1.32-2.38C208 25 208 25 211 23c2.78-.02 5.26.51 8 1 1.64 1.64 1.22 3.49 1.26 5.75-.06 4.28-.39 6.89-3.26 10.25-4.44 4.2-8.5 5.78-14.56 6.31-3.84-.35-5.48-.84-8.44-3.31-3.63-5.05-5.26-9.73-5-16 1.37-4.17 2.06-4.81 6.38-5.69"/><path fill="#a07e3f" d="M31 203c3.99 1.49 5.32 3.7 7.44 7.31 6.2 10.01 6.2 10.01 11.09 11.42 2.49.52 4.95.94 7.47 1.27-3.45 2.3-4.23 2.14-8.19 1.62-.9-.11-1.8-.22-2.73-.33-.69-.1-1.37-.19-2.08-.29v-2h-5v-2H28v2l10-1 1 3h-2v3l2 1-3 1 3 1v2l-2 2-1 2c-6.55.37-6.55.37-8.75-1.44-.41-.51-.82-1.03-1.25-1.56l-3-1c-.16-.82-.16-.82-1-5l4-1-1.9-.18c-.82-.09-1.63-.17-2.48-.26l-2.46-.24C17 225 17 225 15 224v-12c2.7-.23 5.4-.46 8.11-.68 2.68-.3 5.26-.75 7.89-1.32z"/><path fill="#afa747" d="M215 86c.82.17.82.17 5 1l1 3 2-2c.23 1.28.45 2.56.69 3.88.53 2.21.53 2.21 1.31 4.12 2.62 1.5 2.62 1.5 5 2v3c-1.66.38-3.32.71-5 1l-1-1-2 6 2 1-2 1c-2.92 4.68-4.67 9.67-6 15h2l-.06 3.31C218 131 218 131 219 134h-4l3 2h-11v-2c-1.94.38-1.94.38-4 1l-1 2h-2l1-5h4c-.06-.95-.12-1.89-.18-2.87 0-5.02 1.59-9.52 3.12-14.25.55-1.76 1.1-3.51 1.65-5.26.25-.77.49-1.54.75-2.33.66-2.29.66-2.29 1.16-4.98.59-2.73 1.48-3.45 3.5-5.31 2.19-3.34 2.18-6.06 2-10z"/><path fill="#ead2a0" d="M43 188c.83.33.83.33 5 2l2-2 1 5c-.33.16-.33.16-2 1 .19.6.37 1.2.56 1.81C50 198 50 198 49 201c.97.25 1.94.5 2.94.75 1.01.41 2.02.82 3.06 1.25.88 2.12.88 2.12 1 4h2v-2c1.88.75 1.88.75 4 2 .25.66.5 1.32.75 2 1.59 2.54 2.53 2.55 5.37 3.25 1.28.25 2.56.5 3.88.75-.16-.33-.16-.33-1-2 3.28.57 4.93 1.37 7 4 1.19 2.69 1.19 2.69 2 5h-5v2c-26.86-4.45-26.86-4.45-35-14-2-4.08-2.21-7.49-2-12h1l1-5 1 3h3z"/><path fill="#d47d5b" d="M176 195h7v1l11 2-1 5h4c.37 12.67.37 12.67-2 18h-4v5h-9v-9h-1l-1-4q-.045 2.94-.06 5.88c-.01 1.09-.03 2.18-.04 3.3.1 2.82.1 2.82 1.1 4.82h-4c-1.21-10.66-1.1-21.28-1-32"/><path fill="#ad8943" d="M76 228c11.38-.13 22.65.2 34 1-.4.32-.4.32-2.44 1.94C105 233 105 233 104 234l23 1-4 2-1 2h-2l-2 2c-2.98.19-5.86.26-8.84.23h-2.66c-1.86 0-3.72-.01-5.58-.02-2.84-.02-5.69-.02-8.54-.02-1.8-.01-3.6-.02-5.41-.02-.85 0-1.7 0-2.58-.01-3.37-.02-6.17-.09-9.39-1.16-1.89-.2-3.79-.36-5.69-.5C55.4 238.4 55.4 238.4 53 236l5-1-1-2c5.05.42 9.3 1.01 14 3l2-1v2h3c.14-.64.29-1.28.44-1.94C77 233 77 233 78 232c1.51-.23 3.04-.41 4.56-.56.83-.09 1.66-.17 2.51-.26L87 231v-2H76z"/><path fill="#634822" d="m153 44 2 4c1.05-.37 2.1-.74 3.19-1.12 3.81-.88 3.81-.88 6.69-.26C167 48 167 48 167.81 50.12c.06.62.13 1.24.19 1.88 3.75 1.12 3.75 1.12 6 0 .16.5.16.5 1 3 3.06 1.69 3.06 1.69 6 3v2h5c.16.49.16.49 1 3 1.33.67 2.67 1.34 4 2 11 11.84 11 11.84 11 18 .62.06 1.24.12 1.88.19 2.12.81 2.12.81 3.43 3.19C208 89 208 89 207 92l2 2-1 3c-.33.16-.33.16-2 1-3.6-3.48-6-6.79-8-11.38-.35-.79-.69-1.58-1.05-2.39-1.02-2.39-2.01-4.8-2.95-7.23h-2v-2h-2c-.16-.5-.16-.5-1-3-1.66-1.01-3.33-2.01-5-3-.72-.76-1.44-1.53-2.19-2.31-10.44-9.99-25.96-15.33-40.12-16.25-1.26-.09-2.51-.17-3.8-.26L135 50v-4c6.07-2.16 11.59-2.21 18-2"/><path fill="#413114" d="m105 17 4 1-2 3c-.2 2.71-.28 5.29-.25 8-.01.72-.02 1.45-.02 2.2.01 3.79.12 5.57 2.27 8.8-.38 3.69-.38 3.69-1 7h-2v-2h-7l-3 2c-2.53.2-4.92.28-7.44.25-.66 0-.66 0-3.99.02-3.21-.24-4.92-.56-7.57-2.27v-2l-3 1c-4.56-1.58-7.94-3.21-11-7v-2h2c.52.6 1.03 1.2 1.56 1.81 5.99 5.37 15.36 6.43 23.14 6.36 4.49-.33 8.89-1.26 13.3-2.17-.39-2.44-.39-2.44-1-5-1.69-1-1.69-1-4-2-2.15-1.55-4.03-3.21-6-5v-2c-9.71-3.94-16.23-3.36-26 0l-1 7c-2.06-1.69-2.06-1.69-4-4-.19-2.44-.19-2.44 1-5 4.37-4.49 9.8-6.66 16-7 4.07.39 8.01 1.14 12 2 .45.07.45.07 2.75.41C95 21 95 21 96.81 23.56c.2.4.2.4 1.19 2.44l2-3c.16.33.16.33 1 2z"/><path fill="#fdedc3" d="M109 95c.1.64.21 1.28.31 1.94.23.68.46 1.36.69 2.06 3.62 1.21 4.64.54 8-1 .12 7.75.12 7.75-1 10l3 1c-.13.58-.27 1.16-.4 1.76-.81 3.56-1.57 7.06-2.1 10.68C117 124 117 124 115 126c-7.3.46-7.3.46-11-2l-4 3v-3h2c-.31-.6-.62-1.2-.94-1.81C100 120 100 120 99 117h-4l.06-2.38C95 112 95 112 94 110c.64-.12 1.28-.25 1.94-.38.68-.2 1.36-.41 2.06-.62l1-2h2v-3h3l2-6h2z"/><path fill="#5b511e" d="M244 52c2.98 2.24 3.81 3.91 4.45 7.56.27 2.48.45 4.94.55 7.44h-5c-.27-.64-.54-1.28-.81-1.94C242 63 242 63 239 62v5l-4 1v-2h-6c-.12 1.04-.24 2.07-.37 3.14l-.51 4.11c-.07.68-.15 1.36-.23 2.07-.48 3.78-1.15 6.2-2.89 9.68v-9h-2c.13.63.27 1.26.4 1.91 1.11 5.35 2 10.65 2.6 16.09h-2c-3.8-3.8-6.28-6.49-6.31-12.06.26-9.34 3.08-17.9 9.31-24.94 4.97-4.47 10.33-6.58 17-5"/><path fill="#fcf5d8" d="M136 51c17.54-1.08 29.47 2.67 44 13 .76.52 1.52 1.04 2.3 1.58.56.47 1.12.94 1.7 1.42v2c.8.31 1.61.62 2.44.94C189 71 189 71 190 72c.04 1.67.04 3.33 0 5-3.87 0-6.51-1.42-10-3v-2l-4-1v-3a70 70 0 0 0-8.31-2.94c-4-1.15-7.81-2.56-11.69-4.06v2c-2.75.92-4.36 1.11-7.19 1.06L145 64l-2-7c-.95-.14-1.9-.29-2.88-.44C137 56 137 56 135 55z"/><path fill="#d9a546" d="M189 140c2.32-.34 2.32-.34 5 0 1.46 2.41 1.46 2.41 2.94 5.5 1.99 3.05 1.99 3.05 5.06 5.5 7.17 1.48 14.76.67 22 0 .16.82.16.82 1 5l2-4c.25 2.31.25 2.31 0 5-4.44 4.44-10.06 3.68-16 4h12l-1 2c-4.94.99-9.78 1.14-14.81 1.12-1.31.01-2.61.01-3.96.01C200 164 200 164 198 163v-3l-2-1 1-1-4-1c-.04-.58-.07-1.16-.11-1.76-.43-5.09-1.35-8.71-3.89-13.24z"/><path fill="#a06c38" d="M250 196c2.01 4.03 2.1 5.68 2 10l1 1 2-2c-.08.76-.16 1.53-.25 2.31.25 2.69.25 2.69 2.25 4.38.33.21.33.21 2 1.31v2l4-2 2 2h-2c.45.39.91.78 1.38 1.19 1.9 2.12 2.68 4.14 3.62 6.81l-7 3 2 1v6c-.45-.5-.91-.99-1.38-1.5C260 230 260 230 258 230l-2 3c-.5-.16-.5-.16-3-1v-2l-3 2h-3v-3h-8c2.89-1.58 5.53-2.46 8.75-3.12.8-.17 1.6-.34 2.42-.51.61-.12 1.21-.25 1.83-.37-4.92-.17-8.5-.25-13 2l1-3c2.07-.73 2.07-.73 4.56-1.19.83-.16 1.66-.31 2.51-.48.63-.11 1.27-.22 1.93-.33l-4-2 5-1v-2l-7 1v3h-4v-3l10-4c.16-2.97.16-2.97 1-18m1 11 1 2z"/><path fill="#f2deb1" d="M55 118h4v5l-3 1-1 7 5 1c.13 6.55.13 6.55-.62 9.25-.13.58-.25 1.16-.38 1.75l2 3c.12 3.19.12 3.19 0 6h2l1 3 1 2-6 3h2l1 4c-.99.82-.99.82-6 5-2.58-2.58-3-3.8-3.06-7.5l.09-2.12c-.03-2.73-.5-5.2-1.03-7.88-1.79-9.99-1.67-20.5 0-30.5l3 1z"/><path fill="#fdc993" d="M186 102c.82.33.82.33 5 2v16h9l1 5c-.34-.08-.34-.08-2.07-.5-3.3-.56-6.4-.6-9.74-.56-.58 0-.58 0-3.52.02-.88.02-1.76.03-2.67.04v3l-5-1c-.05-.32-.05-.32-.31-1.94-.23-.68-.46-1.36-.69-2.06l-3-1c.11-1.6.24-3.21.38-4.81.06-.9.13-1.79.21-2.71C175 111 175 111 177 108c3.12-.19 3.12-.19 6 0 .12-.8.25-1.61.38-2.44.2-.84.41-1.69.62-2.56z"/><path fill="#f1cd55" d="M177.38 139.69c.56-.02.56-.02 3.4-.11 3.93.52 5.45 1.64 8.22 4.42 1.37 2 1.37 2 2.32 4 .16.33.16.33.99 2 .69 2 .69 2 .69 6h-2c-.32.99-.65 1.98-1 3-3.14 1.05-5.38 1.1-8.68 1.07l-3.01-.03c-.38-.01-.38-.01-2.31-.04.34-1.65.66-3.3 1-5 .98-.23.98-.23 5.86-1.36 2.21-.66 4.12-1.55 6.14-2.64l-8.81-.06-2.52-.03c-.81 0-1.61 0-2.43-.01-.74 0-1.48-.01-2.24-.01-2 .11-2 .11-5 1.11-.33.99-.65 1.98-1 3v-3h-2c-.36-7.46-.36-7.46 1.32-9.93 3.57-2.26 6.94-2.29 11.06-2.38"/><path fill="#e2bd7a" d="M231 165c1.31 15.69 1.58 31.32 0 47q-3 .06-6 0c-1-1-1-1-1.12-3.44C224 206 224 206 225 204c.07-1.37.08-2.75.06-4.12L225 196h-2c-.2-1.42-.38-2.83-.56-4.25-.11-.79-.21-1.58-.32-2.39-.12-2.43-.01-4.09.88-6.36l3-2c.29-2.16.29-2.16.19-4.62-.03-.82-.06-1.64-.08-2.48-.04-.63-.07-1.25-.11-1.9h-2l-1-6c2.93-.98 4.96-1.08 8-1"/><path fill="#3b2b17" d="M124 219h3c.16.5.16.5 1 3h6c-2 2-2 2-4.62 2.12L127 224v4c-.69-.16-1.39-.33-2.11-.5-3.13-.54-6.03-.6-9.2-.56-1.07.01-2.14.02-3.24.02-.81.02-1.62.03-2.45.04v-1c-2.88-.12-2.88-.12-6 0l-2 2c-1.94.24-1.94.24-4.29.23-.86 0-1.72 0-2.6-.01l-2.73-.03h-2.67c-5.32-.04-10.44-.42-15.71-1.19l-1-3c-3.56-1.19-3.56-1.19-7-2v-1c3.29.14 6.58.29 9.88.44.91.04 1.83.08 2.78.12 5.42.24 10.79.64 16.19 1.23 2.72.26 5.42.28 8.15.21v-2c.6-.03 1.2-.05 1.82-.08 2.71-.11 5.41-.23 8.12-.36l2.86-.12 2.73-.12c.41-.02.41-.02 2.52-.11C123 220 123 220 124 219"/><path fill="#f5e0b3" d="M76 80c0 5.32-.47 6.92-4 11 .32.05.32.05 1.94.31.34.12.34.12 2.06.69l1 3 2 1c.73 1.98 1.4 3.98 2 6l-2 2-1-3-6 1v3l-3 1c.21.58.41 1.16.62 1.75.49 2.93-.01 3.76-1.62 6.25-1.58 2.12-3.21 4.03-5 6h-2q.345-.9.69-1.83c.29-.8.58-1.6.87-2.42.29-.79.58-1.58.88-2.39.62-2.61.42-3.86-.44-6.36-1.73-5.29-2.19-9.5-2-15l1 2 2.25-2.25L67 89c.72-.76 1.44-1.53 2.19-2.31C71 85 71 85 73 85l.94-1.94C75 81 75 81 76 80"/><path fill="#e08a4d" d="M191.5 160.75c2.5 1.25 2.5 1.25 3.67 2.81 2.91 2.28 6.11 1.79 9.64 1.69.7-.01 1.4-.01 2.12-.02 4.11-.06 8.04-.44 12.07-1.23l-2 3h-3l-1 5c-6.02 1.05-11.89 1.15-18 1.13-.96 0-1.92 0-2.91.01-5.14-.01-10.03-.25-15.09-1.14 1.19-3.44 1.19-3.44 3-7 2.69-.94 2.69-.94 5-1l1-3c3-1 3-1 5.5-.25"/><path fill="#d17255" d="M216 174v6l-5 1 1-3h-2l-1-3v3h-2v2h-3l6 2v1h-11v2l2 1h-11v-4l-3.25.12c-3.41-.11-4.96-.33-7.75-2.12v-5c4.63-.31 9.25-.61 13.88-.91 1.57-.1 3.15-.2 4.72-.31 2.26-.15 4.53-.3 6.79-.44.7-.05 1.4-.1 2.13-.15 3.35-.2 6.28-.29 9.48.81"/><path fill="#aaa142" d="M132 13.56c2.55 3.11 2.77 5.48 3 9.44-.99-.17-.99-.17-6-1v-2l-8-1v3l-4 2v2h-2l-2 4h-5l1 4h-2c-1.99-3.98-1.52-8.68-1-13 1.42-3.45 3.67-5.33 7.02-7.03 6.28-2.4 12.85-3.6 18.98-.41"/><path fill="#a09b3a" d="M58 29c2.92.97 4.72 1.7 6.81 4 3.14 2.87 6.05 3.17 10.19 4l-3-5 1.88 1C76 34 76 34 78 34l-1-2c.62.14 1.24.29 1.88.44 2.7.48 5.26.73 8 .94 4.62.44 8.04 1.37 12.12 3.62.16.5.16.5 1 3h-2v-2l-3 1 2 2-5 1v2c-5.76.21-10.5-.34-16-2q-1.2-.33-2.43-.66c-.81-.24-1.61-.47-2.45-.72-.73-.21-1.47-.42-2.24-.64-2.39-1.24-2.92-2.52-3.88-4.98h-2c1.47 3.87 3.5 4.97 7 7v2c-4.75-.88-4.75-.88-7-2-.25-.83-.49-1.65-.75-2.5-.41-.83-.83-1.65-1.25-2.5-3.12-.81-3.12-.81-6-1 .64-.1 1.28-.21 1.94-.31.68-.23 1.36-.46 2.06-.69l1-3-1-1z"/><path fill="#9f5d31" d="m193 15 1 1 2-1v2l3 1h-3v4c-.31.04-.31.04-1.88.25-2.12.75-2.12.75-3.26 2.53-1.69 4.36-.74 9.02.96 13.29 1.88 3.55 3.44 5.53 7.18 6.93 2.22.09 2.22.09 4.5-.06 3.18-.09 4.24-.09 7.06 1.56L212 48c-2 3-2 3-4.02 3.58-.78.08-1.56.15-2.36.23-.77.09-1.54.18-2.33.27-4.74-.17-8.56-3.37-12.29-6.08v-2l-5-1v-5h-2c-1.02-4.63-.96-8.35 0-13l2-3c.15-.33.15-.33.94-2 1.47-2.78 2.74-5 6.06-5m-9 13 1 2zm1 4 1 3z"/><path fill="#ada545" d="M255 64h1c.69 12.01-2.22 20.76-10 30-4.66 4.79-10.03 8.96-16 12h-2v-2l-2-1-2 4h-2c.16-.99.16-.99 1-6h7v-3l-4-1c.82-.16.82-.16 5-1l-2-2c1.99-.38 3.99-.71 6-1l1 1c4.27-1.5 6.77-2.97 9.13-6.88 2.81-6.01 3.62-11.52 3.87-18.12h2v7h2l-.12-3.75c-.02-3.27.26-5.46 2.12-8.25"/><path fill="#fcbb85" d="M90 126c4.74.39 8.66.97 13 3v3h4c.5 3.51.12 4.82-1.88 7.81-4.37 3.06-7.94 2.86-13.12 2.19-3.12-1-3.12-1-5-2-1.35-7.25-1.35-7.25.38-10.94C89 127 89 127 90 126"/><path fill="#efd46d" d="M226.88 138.69c1.41 2.91 1.34 5.12 1.12 8.31-3 0-3 0-5-1v2c-2.97.2-5.95.38-8.93.57-.85.05-1.7.11-2.58.16l-2.45.15c-.75.05-1.5.1-2.27.14C205 149 205 149 204 148c-.34-3.65-.48-6.12 1.32-9.37 5.59-3.39 16.43-4.55 21.56.06"/><path fill="#5c3a20" d="M179 164c-4.06.98-7.84 1-12 1-.33.16-.33.16-2 1l-1 51h-4l-1 3c-1.5-7.13-1.47-13.99-.06-21.12 1.88-10.14 1.75-20.6 2.06-30.88h-3l-1 4h-2c.26-2.34.59-4.68 1-7l2-1v2q1.14-.705 2.31-1.44c5.67-2.84 13.14-3.93 18.69-.56"/><path fill="#e2ca9b" d="M119 204h21c-1 10-1 10-3 14v2c-1.65.16-1.65.16-10 1l-2-3c-3.12-.19-3.12-.19-6 0l1-2c2.31-.73 4.65-1.4 7-2v-1l-8-1z"/><path fill="#48361a" d="M208 76h1c-.01.28-.01.28-.07 1.7-.17 7.57.87 14.83 2.07 22.3h-4v5l4-1c-.36 5.42-1.22 9.94-3.06 15.06-1.76 4.95-2.34 8.73-1.94 13.94l-5-1c-.16.99-.16.99-1 6-1.54-1.24-1.54-1.24-3-3 .04-1.98.04-1.98.62-4.19.21-.79.42-1.58.64-2.39 2.95-9.63 2.95-9.63 5.74-12.42 1.39-7.48 1.51-13.26-2-20l1-3h2l1 3 2-2-3-2 1-3v-9h2z"/><path fill="#694e26" d="M252 46c.89.37 1.77.74 2.69 1.12 3.17 2.58 3.23 4.98 3.76 8.92.18.65.36 1.29.55 1.96l3 1v18c-.33.16-.33.16-2 1l-1-3h-2l-.15-2.3c-.07-.99-.15-1.99-.23-3.01-.06-.99-.13-1.97-.21-2.99C256 64 256 64 254 61c-.92-2.79-1.78-5.59-2.61-8.41-1.93-3.59-3.54-4.28-7.39-5.59-3.14-.33-6.22-.29-9.38-.19-.83.02-1.66.03-2.51.04-2.04.04-4.08.09-6.11.15 1.38-1.5 1.38-1.5 3-3h2l1-2c7.56-1.85 13.65-.29 20 4"/><path fill="#44341f" d="m165 96 2 1v3l3 1c.21 3.64.21 6.43-1.06 9.88-1.94 2.12-1.94 2.12-5.38 3.06-4.96.08-4.96.08-7.56-1.94-2.55-3.44-2.36-6.85-2-11 2.84-5.95 4.72-6.31 11-5"/><path fill="#a07e3f" d="m97 231 3 1v2h2c.16.82.16.82 1 5H83v2c-3.04.08-5.07-.02-8-1-1.89-.2-3.79-.36-5.69-.5C55.4 238.4 55.4 238.4 53 236l5-1-1-2c5.05.42 9.3 1.01 14 3l2-1v2h3c.12-.64.25-1.28.38-1.94.1-.34.1-.34.62-2.06 2-1 2-1 3.95-.44.71.29 1.43.58 2.17.88.73.28 1.45.57 2.2.87.28.11.28.11 1.68.69v-2c6.15-.1 6.15-.1 8 0l1 1z"/><path fill="#55431b" d="M256 60h1v15h2l1-4c.25 2.27.47 4.54.69 6.81.13 1.27.25 2.53.38 3.83-.07 3.36-.07 3.36-1.5 5.19-.52.39-1.03.77-1.57 1.17l-.88 1.88c-1.53 2.89-3.81 4.81-6.12 7.12l-1 3h-2l-1 5h-3v-2c-.82.16-.82.16-5 1v-2c-.33.16-.33.16-2 1 1.4-3.29 2.94-4.96 5.75-7.12 7.95-6.76 11.64-15.25 12.58-25.49.26-3.46.48-6.92.67-10.39"/><path fill="#979137" d="M223 76h2l1 5 1-5c.28.25.28.25 1.69 1.5 2.69 1.75 4.16 1.76 7.31 1.5v3l1-4h8c.93 2.61 1.15 3.64.06 6.25-.17.29-.17.29-1.06 1.75h-2v3c-1.91.7-3.83 1.38-5.75 2.06-1.07.39-2.13.77-3.23 1.16-4.31 1.11-4.31 1.11-7.02-.22-2.74-5.58-3.33-9.84-3-16"/><path fill="#aa8f47" d="m26 212 1 2H17l2 2c.82-.16 1.65-.33 2.5-.5.82-.16 1.65-.33 2.5-.5l2 2h-3v2h2l1 3c1.06 1.62 1.06 1.62 3 3 1.91.34 1.91.34 4.06.56C37 226 37 226 39 228l-3 1 3 1v2l-2 2-1 2c-6.55.37-6.55.37-8.75-1.44-.41-.51-.82-1.03-1.25-1.56l-3-1c-.16-.82-.16-.82-1-5l4-1c-.63-.06-1.25-.12-1.9-.18-.82-.09-1.63-.17-2.48-.26l-2.46-.24C17 225 17 225 15 224v-12c4.48-.9 6.71-1.07 11 0"/><path fill="#5d4627" d="M51 98c.83.33.83.33 5 2-.51 4.26-1.06 8.5-1.72 12.74-1.75 11.43-2.87 22.71-3.28 34.26l-2-1c-.16-.5-.16-.5-1-3h-2c-.03-2.79-.05-5.58-.06-8.38l-.03-2.4c-.02-5.99-.02-5.99 1.09-8.22.16-2.5.28-5 .38-7.5.31-6.53 1.27-12.35 3.62-18.5"/><path fill="#756326" d="M105 17c1.44 2.87.47 4.41-.44 7.44-.9 3.05-1.56 5.37-1.56 8.56h-2c-1.62-2-1.62-2-3-4l-5 1-1-3c-2.38-1.12-2.38-1.12-5-2l-3-1c-6.57-.46-11.81.87-18 3l-1 7c-2.06-1.69-2.06-1.69-4-4-.19-2.44-.19-2.44 1-5 4.37-4.49 9.8-6.66 16-7 4.07.39 8.01 1.14 12 2 .45.07.45.07 2.75.41C95 21 95 21 96.81 23.56c.2.4.2.4 1.19 2.44l2-3c.16.33.16.33 1 2z"/><path fill="#d2ab70" d="M165 189h3v4h2v21h2l1-25h1l1 38h-5v-2l-6-2z"/><path fill="#3a2915" d="M36 189h2c.04.86.07 1.71.11 2.6.82 14.15.82 14.15 5.41 19.01 5.02 4.27 10.52 5.88 16.82 7.53.88.28 1.76.57 2.66.86l1 2c-.66.16-.66.16-4 1 .97.14 1.94.29 2.94.44C66 223 66 223 67 224c1.67.04 3.33.04 5 0l-1 3c-5.62.25-5.62.25-9-2-3.12-.62-6.23-1.15-9.38-1.59-6.31-1.08-8.86-4.1-12.6-9.02-.3-.42-.3-.42-1.77-2.58-.59-.86-1.19-1.72-1.8-2.6-2.41-3.66-2.55-5.83-2.45-10.21h2z"/><path fill="#a4723e" d="M143 229v2l-4 1 4 1v5c6.08-.42 8.89-1.55 14-5 3.38-.25 3.38-.25 6 0l-4 1c1 1 1 1 3.56 1.06L165 235l-2 4c1.9.03 3.79.05 5.69.06.53.01.53.01 3.2.04 2.84-.09 5.34-.5 8.11-1.1 6.56-.22 6.56-.22 9 1v2c-4.38.02-8.76.04-13.13.05l-4.47.03c-2.14.01-4.28.01-6.42.02-1.29 0-2.58.01-3.91.01C158 241 158 241 156 240c-1.67.33-3.33.66-5 1l-1-1-3 1c-2.07-.25-4.13-.57-6.19-.94-5.05-.84-9.7-1.26-14.81-1.06v-2h13v-3h-7c.38-2.44.38-2.44 1-5 3.28-1.64 6.43-.52 10 0"/><path fill="#52371f" d="m174 185 3 1-1 8h21v1h-21c.16 3.05.33 6.1.5 9.25.39 7.59.64 15.14.5 22.75l8 1-1 2q-5.31.045-10.62.06c-.5.01-.5.01-3.03.03-4.9.01-9.54-.05-14.35-1.09l1-3c1.16-.16 1.16-.16 7-1v-2l6 2v2c.66-.16.66-.16 4-1z"/><path fill="#644e2a" d="M47 111h1c.03 2.12.05 4.25.06 6.38.01 1.18.03 2.36.04 3.58C48 124 48 124 47 126c-.23 2.88-.42 5.74-.56 8.62-.02.41-.02.41-.13 2.43-.11 1.99-.21 3.97-.31 5.95h2l1-3 1 6c.33-.16.33-.16 2-1 .39 2.35.77 4.7 1.12 7.06.12.66.23 1.32.34 1.99.74 4.99.17 8.3-1.46 12.95l-2-4c-.49.16-.49.16-3 1l-2-2c0-2.01.01-4.02.12-6.03C45 154 45 154 43 151c-.83-3.26-1.31-5.21-.06-8.38.35-.53.7-1.07 1.06-1.62l-1-1c-.1-1.62-.13-3.25-.12-4.88-.01-.88-.01-1.76-.01-2.67C43 130 43 130 44 127c.93-3.38 1.5-6.79 2.06-10.25.18-1.08.36-2.16.54-3.27.13-.82.26-1.64.4-2.48m-3 22 1 2z"/><path fill="#341a0b" d="m223 166-3 2c-.4 2.14-.4 2.14-.43 4.82l-.06 3.03c-.01 1.08-.02 2.17-.02 3.28l-.06 3.36c-.05 3.54-.08 7.09-.12 10.63-.03 2.4-.07 4.8-.1 7.2-.09 5.9-.15 11.79-.21 17.68h-2c-.03-.87-.05-1.74-.08-2.64-.09-3.3-.19-6.59-.29-9.89-.05-1.42-.09-2.83-.13-4.24-.26-9.1-.71-18.16-1.5-27.23-.51.04-.51.04-3.12.22-10.31.68-20.55.9-30.88.78 2.56-2.56 3.67-2.3 7.23-2.41l3.12-.12 3.27-.09 3.3-.12c2.69-.1 5.39-.18 8.08-.26l-7-1v-1h15v-3c6.75-2.12 6.75-2.12 9-1"/><path fill="#da8964" d="M207 196c-6.75 2-6.75 2-9 2v31c-12 0-12 0-17-1v-2l-2-1v-17l2 4 2 3c.23 2.19.23 2.19.19 4.56-.01.79-.02 1.57-.02 2.38C183 224 183 224 182 226h9v-5l4-1 2-17h-4l-1-4-13-2v-1c4.1-.2 8.21-.38 12.31-.56 1.17-.06 2.34-.11 3.54-.17l3.39-.15c.51-.02.51-.02 3.12-.14C204 195 204 195 207 196"/><path fill="#f7ecc7" d="M243 144c3.68 1.68 7 3.45 9.22 6.91 1.27 3.41.9 6.47.78 10.09h-2v3h-2c-.19-.57-.39-1.13-.59-1.71-.26-.74-.52-1.47-.79-2.23-.25-.73-.51-1.46-.77-2.21C246 156 246 156 244 155c-1.66-.2-3.33-.36-5-.5-4.78-.39-4.78-.39-7-1.5-.48-5.42-.48-5.42 1.56-7.88 3.48-1.6 5.63-1.63 9.44-1.12"/><path fill="#75592e" d="m153 44 2 4c1.05-.37 2.1-.74 3.19-1.12 3.81-.88 3.81-.88 6.69-.26C167 48 167 48 167.81 50.12c.06.62.13 1.24.19 1.88 3.75 1.12 3.75 1.12 6 0 .69 2.49 1 4.38 1 7-3.81-1.05-7.57-2.17-11.31-3.44-.77-.25-1.53-.51-2.32-.77-1.57-.52-3.12-1.06-4.67-1.61-7.15-2.41-14.2-2.87-21.7-3.18v-4c6.07-2.16 11.59-2.21 18-2"/><path fill="#6d5428" d="M63 70h8c-.51 4.5-2.19 6.54-5 10-1.09 2-2.08 4.03-3.06 6.09C62 88 62 88 60.38 90.5 58.5 93.9 57.84 97.21 57 101c-.78-.19-1.57-.37-2.38-.56C52 100 52 100 50 101c.16-1.09.33-2.19.5-3.31C51 94 51 94 51 91l2-1 1-3h2c.25-1.07.49-2.14.75-3.25 1.3-3.89 2.46-4.96 5.25-7.75.75-3.25.75-3.25 1-6"/><path fill="#a47645" d="M237 231h8c-1 3-1 3-2 5h4v2c-6.04 1.26-11.75 2.24-17.93 1.97-2.07.03-2.07.03-4.26.53-3.33.59-6.47.61-9.86.6-.66 0-1.32-.01-2-.01-2.09 0-4.17-.01-6.26-.03-1.43 0-2.85-.01-4.27-.01-3.47-.01-6.95-.03-10.42-.05l-1-4c.57.09.57.09 3.44.56 1.17.15 2.35.29 3.56.44l1-1c1.5-.1 3-.13 4.5-.12.81-.01 1.63-.01 2.47-.01C208 237 208 237 209 238c7.35 1.32 13.81.89 21-1l-3-2c1.49-.16 1.49-.16 9-1zm2 2 1 3 2-1z"/><path fill="#9a6b36" d="m154 226 3 1-1 2 1.72-.03c2.62-.04 5.23-.07 7.84-.09l2.72-.06c5.32-.03 9.68.43 14.72 2.18v3c.56-.16 1.12-.33 1.7-.49 2.44-.54 4.58-.62 7.07-.61.89.01 1.77.01 2.69.01l2.79.03c.94 0 1.87.01 2.84.01 2.3.01 4.61.03 6.91.05v2c-3.34.75-6.38 1.11-9.8 1.06-.45 0-.45 0-2.71-.02-1.86-.03-3.71-.05-5.57-.08-5.41-.05-10.56.24-15.92 1.04v1h-6v-7h-14c0-4 0-4 1-5"/><path fill="#c1903d" d="M175.45 149.8c.42 0 .42 0 2.57.02.44.01.44.01 2.67.05.44 0 .44 0 2.7.03 2.21.02 4.41.05 6.61.1-3.29 3.38-5.39 4.93-10.25 5.12L177 155l-1 5h5v1l-6 1v1c-.36.02-.36.02-2.19.14-5.22.41-9.91.87-14.81 2.86v-3c.81-.29 1.61-.58 2.44-.88C163 161 163 161 164 159l5 1v-4l-1 2h-2c1.64-5.82 3.18-8.28 9.45-8.2"/><path fill="#e7cd9a" d="M43 188c.83.33.83.33 5 2l2-2 1 5c-.33.16-.33.16-2 1 .19.6.37 1.2.56 1.81C50 198 50 198 49 201c.97.25 1.94.5 2.94.75C55 203 55 203 56 204.88c0 2.54-.69 3.96-2 6.12l-1-3-2.88.12C47 208 47 208 45 206v-3l-6 1c-1.35-2.71-1.07-5.01-1-8h1l1-5 1 3h3z"/><path fill="#d9805d" d="m216 192-1 10h-2v5c-.33-.5-.66-.99-1-1.5-2-1.5-2-1.5-10-1.5l-1 16h-1l-1-8h-1v-14c.63-.13.63-.13 3.81-.81 3.31-.82 4.93-1.59 7.19-4.19 2.52-.86 4.31-1 7-1"/><path fill="#d4b053" d="M24 72c2.49.8 4.64 1.84 7 3 1.32.37 2.65.73 4 1l-1 3 1 3c-2.37 2.37-3.01 2.32-6.25 2.38-4.65-.1-7.05-1.5-10.75-4.38-1.99-1.03-3.98-2.04-6-3v-3c4.06-2.7 7.24-2.54 12-2m8 7 1 2z"/><path fill="#d67a5c" d="M152 206h3c1.55 4.28 2.48 8.37 3.12 12.88.17 1.15.34 2.3.51 3.49.12.87.25 1.73.37 2.63l-6.38-1.44c-1.18-.26-2.36-.53-3.58-.81C146 222 146 222 144 221c-.41-2.07-.41-2.07-.62-4.56-.08-.83-.15-1.66-.23-2.51-.05-.63-.1-1.27-.15-1.93h8l-.06-2.44C151 207 151 207 152 206"/><path fill="#dcb774" d="m174 164 2 2c-.38 2.62-.38 2.62-1 5h-2l-1 14h-4l1 3-4-1v-22c3.01-1.51 5.68-1.18 9-1"/><path fill="#978f39" d="m215 86 5 1 1 3 2-2c.23 1.28.45 2.56.69 3.88.53 2.21.53 2.21 1.31 4.12 2.62 1.5 2.62 1.5 5 2v3c-1.66.38-3.32.71-5 1l-1-1-2 6 2 1-2 1-2 3-2-1-1 4-2-1c.45-1.79.91-3.58 1.38-5.38.25-.99.51-1.99.77-3.02.85-2.6.85-2.6 2.85-4.6-2.38-.12-2.38-.12-5 0l-2 2-1-3c.23-.21.23-.21 1.38-1.25 2.74-2.96 3.59-4.92 3.74-9-.04-.91-.08-1.81-.12-2.75z"/><path fill="#352516" d="M107 111c3.43.31 5.53.65 8.31 2.75 1.94 2.59 2.61 4.01 2.69 7.25-.94 2.81-.94 2.81-3 5-3.57.79-6.76.66-10-1.06-1.59-3.09-1.35-5.53-1-8.94 1.5-2.94 1.5-2.94 3-5"/><path fill="#f3d15c" d="M210.33 150.9c.4 0 .4 0 2.42.01l2.5.03c.84 0 1.68 0 2.55.01 2.07.01 4.13.03 6.2.05l1 5 2-4c.25 2.31.25 2.31 0 5-1.58 1.71-1.58 1.71-4 3-3.24-.11-3.24-.11-6.87-.75-1.2-.2-2.39-.4-3.62-.61-2.28-.42-4.55-.84-6.83-1.28C203 157 203 157 201 158l1-6c2.85-.82 5.37-1.12 8.33-1.1"/><path fill="#8f5a2a" d="M222 25c2.5 1.85 3.05 3.17 4 6.19 0 5.02-1.84 7.99-5 11.81l-2 1 2 3 2-1 3 2c-2.95 1.8-5.89 3.5-9 5l-1-4c-2.98-.77-5.98-1.41-9-2 2-3 2-3 5.44-4.88 3.42-1.89 5-3.42 6.56-7.12.6-2.36 1.12-4.72 1.57-7.11C221 26 221 26 222 25m-5 22-1 2 3-1z"/><path fill="#522814" d="M216 188h1v30h2v-11h1c.19 2.29.38 4.58.56 6.88.05.63.05.63.32 3.86C221 221 221 221 220 223c.33.16.33.16 2 1-1.66.38-3.32.71-5 1-1-1-1-1-1.11-4.05 0-1.35 0-2.7.01-4.05 0-.71.01-1.42.01-2.15q0-3.405.03-6.81c0-1.54.01-3.08.01-4.61.01-3.78.03-7.55.05-11.33-.74.29-1.47.57-2.23.87-7.24 2.64-13.34 3.67-21.02 3.38-.95-.02-1.89-.04-2.87-.05-2.3-.05-4.59-.12-6.88-.2v-1l6-1v-1c3.37-.51 6.75-1 10.12-1.5.96-.14 1.91-.29 2.89-.43 4.7-.69 9.22-1.26 13.99-1.07z"/><path fill="#914f34" d="m176 171 8 1c-1.38 1.5-1.38 1.5-3 3h-2v5c3.98 1.33 7.85 1.07 12 1v4h-3l-1 3h-7l2 4-5-1v2l2 1h-3c-.12-5.75-.12-5.75 1-8l-3-1c.14-.68.29-1.35.44-2.05.18-.89.37-1.78.56-2.7.09-.44.09-.44.56-2.67.44-2.58.44-2.58.44-6.58"/><path fill="#ae8744" d="M250 196c2.01 4.03 2.1 5.68 2 10l1 1 2-2c-.08.76-.16 1.53-.25 2.31.25 2.69.25 2.69 2.25 4.38.33.21.33.21 2 1.31v2l4-2 2 2h-2c.45.39.91.78 1.38 1.19 1.9 2.12 2.68 4.14 3.62 6.81l-7 3 2 1v6c-.39-.47-.78-.95-1.19-1.44-2.22-1.91-3.94-2.17-6.81-2.56v-3h2l-2-7 3-1v2l3-1c-1-2-1-2-3-3v-2l-4-1v-2c-.33.16-.33.16-2 1l-2 1zm1 11 1 2z"/><path fill="#6b5622" d="m239 101 2 1v2l1 3c-3 1-3 1-7 1-3 2-3 2-3.88 4-1.12 2-1.12 2-3.56 2.88-3.53 1.54-4.13 3.66-5.56 7.12l-3-1c.66-4.49 1.7-8.67 3-13h2l2-5 3 1-1 2c.54-.36 1.09-.72 1.64-1.09.72-.47 1.44-.93 2.17-1.41.71-.46 1.42-.93 2.15-1.41C236 101 236 101 239 101"/><path fill="#8f8933" d="M229 66h6v2c.39-.18.39-.18 2.38-1.06.86-.31 1.73-.62 2.62-.94l2 1c-.41 2.41-.65 3.68-2.5 5.34-1.93 2.13-1.98 3.52-2.19 6.35-.06.81-.13 1.61-.2 2.45-.03.61-.07 1.23-.11 1.86l-3-2h2v-2h-5l-1 3c-2.88-2.88-2.96-6.09-3-10 .94-3.5.94-3.5 2-6"/><path fill="#ca7d5b" d="m236 192 1 4h2v8h4v-7h1l1 15c-8.75 5-8.75 5-11 5-.06-3.79-.09-7.58-.12-11.38l-.06-3.27c0-1.03-.01-2.06-.02-3.12l-.03-2.89C234 194 234 194 236 192"/><path fill="#483418" d="m138 45-3 1v2h8v1c-3.33.2-6.67.38-10 .56-.47.03-.47.03-2.83.17-5.56.29-10.68.14-16.17-.73-1.41 2.64-2.37 5.07-3 8h-2v-4c-.63.17-1.25.34-1.9.51-.82.2-1.63.41-2.48.61-.81.21-1.62.42-2.46.64-.71.08-1.42.16-2.16.24l-2-2h3v-2c2.76-.6 5.16-1 8-1l2-3c2.89-.75 5.62-1.3 8.56-1.75.78-.14 1.55-.28 2.35-.42 5.61-.9 10.47-.66 16.09.17"/><path fill="#93843b" d="M213 116h3l-1 8h3l-.06 3.31C218 131 218 131 219 134h-4l3 2h-11v-2c-1.94.38-1.94.38-4 1l-1 2h-2l1-5h4l-.12-2.25c.18-3.97 1.34-5.97 4.12-8.75l-1 10h4l-1-6h2z"/><path fill="#e58d69" d="M164 161c-2 2-2 2-4.5 2.69-2.5 1.31-2.5 1.31-3.81 4.93-.23 1.12-.46 2.23-.69 3.38h2v-5l4 1c.69 1.81.69 1.81 1 4-1.31 1.62-1.31 1.62-3 3l-2 2-1-4h-4v-2h-7c-.69-2.31-.69-2.31-1-5 4.45-5.82 13.35-5.24 20-5"/><path fill="#d6ad67" d="m222 166 2 1v5h2c1.48 2.96 1.06 5.74 1 9-.65.24-1.3.47-1.96.72C223 183 223 183 222.5 185.09l-.06 2.41c-.07 2.41-.07 2.41-.44 4.5l-3 2c-.09-4.29-.14-8.58-.19-12.88-.02-1.22-.05-2.44-.07-3.7l-.03-3.54c-.02-1.08-.03-2.15-.05-3.27.11-.86.22-1.72.34-2.61z"/><path fill="#b0a748" d="M217 70c2.48 3.72 2.09 5.25 1.69 9.62l-.3 3.54C218 86 218 86 217 87c.09 1.86.25 3.71.44 5.56.1 1.01.2 2.03.31 3.07.08.78.16 1.56.25 2.37l-2-1-2 2c-2.49-7.98-3.33-14.75-2-23h2v-5l2 1z"/><path fill="#da7e5f" d="M180 197c4.83-.08 9.24.05 14 1-.5.85-.99 1.69-1.5 2.56-1.65 3.78-1.74 6.37-1.5 10.44h-8v-7h-2l-1 2z"/><path fill="#5e3519" d="m228 155 1 4-4 2v2c.5-.16.99-.33 1.5-.5 3.53-.71 6.9-.56 10.5-.5v10h-1v-6c-1.29.01-2.58.02-3.9.04-1.68 0-3.36.01-5.04.02-.42.01-.42.01-2.57.03-.81 0-1.62 0-2.45.01-.75 0-1.5.01-2.27.01C218 166 218 166 217 165c-.57.14-1.14.29-1.73.43-2.59.65-4.86.67-7.52.63-.89-.01-1.78-.02-2.7-.02-.68-.02-1.35-.03-2.05-.04 3.48-2.05 6.77-2.57 10.75-3.12 1.17-.17 2.34-.34 3.55-.51.89-.12 1.78-.25 2.7-.37-.3.01-.3.01-1.83.07-.4.01-.4.01-2.42.05-.79.03-1.58.05-2.39.08-2.57-.22-4.15-.91-6.36-2.2 1.18-.03 2.36-.05 3.58-.08 1.56-.05 3.11-.11 4.67-.17.78-.01 1.55-.03 2.36-.04 5.82-.25 5.82-.25 8.94-2.76.24-.32.24-.32 1.45-1.95"/><path fill="#a69e40" d="M69 27h2l1 2c1.07-.16 2.14-.33 3.25-.5 6.2-.83 9.27-.03 14.75 2.5v3h-8l2 1v1c-7.75-.88-7.75-.88-10-2l1 3c-2.75.25-2.75.25-6 0-2.38-2-2.38-2-4-4l4-2z"/><path fill="#42280e" d="M175.94 136.81c1.02-.01 2.04-.03 3.09-.04 3.87.3 6.72 1.31 9.85 3.6 1.12 1.63 1.12 1.63.81 3.82-.23.59-.45 1.19-.69 1.81-.55-.83-1.11-1.65-1.68-2.5-2.95-2.99-5.75-2.93-9.82-3-4.71.04-7.73.56-11.5 3.5-1.25 3.56-1.25 3.56-2 7l-1 2 1 3-3-1c-1.87-3.75-1.32-7.81-.25-11.75 1.72-3.1 3.63-4.73 7.01-5.82 2.76-.53 5.37-.6 8.18-.62"/><path fill="#c2a244" d="M71 43h6v2c3.14.49 3.14.49 19 3l1-4 4-1v2h5l-1 2c-.25.68-.5 1.36-.75 2.06C103 51 103 51 101 51.75c-10.58.88-10.58.88-15.18-.32C84 51 84 51 82 52v-2c-.93-.27-1.86-.54-2.81-.81-2.95-1.1-4.25-1.81-6.19-4.19l1 3-3-1z"/><path fill="#57432a" d="M110 194c.61.35 1.22.7 1.84 1.06 6.76 3.5 12.36 4.54 19.85 4.49 2 .02 2 .02 5.31.45 1.46 2.03 1.46 2.03 2 4-1.95 1.95-5.42 1.22-8 1.25-7.57 0-14.43-.44-20.06-5.94-.64-.76-1.28-1.52-1.94-2.31z"/><path fill="#f1e1b7" d="M55 118h4v5l-3 1-1 7 4 1v6l-3-1-1 4h-2l1 8h-2c-1.25-3.86-1.15-7.73-1.12-11.75v-2.16c.04-4.78.33-9.38 1.12-14.09l3 1z"/><path fill="#3d2411" d="m231 165 3 1c.73 5.87 1.16 11.59 1.12 17.5v2.39c-.08 11.04-.61 22.08-1.12 33.11h-1c-.65-4.85-1.05-9.54-1-14.44.05-5.15-.18-10.24-.5-15.37-.5-8.08-.61-16.1-.5-24.19"/><path fill="#f1ddaf" d="M52 171c2 2 2 2 2 5l2 1-1 5h-2c-.62.19-1.24.37-1.88.56-2.39.49-3.82.18-6.12-.56-1.62 2.25-1.62 2.25-3 5 .81 2.12.81 2.12 2 4v3h-3l-2 4c-1.29-5.75-.77-8.82 2-14 1.26-1.85 2.55-3.65 3.91-5.42C46 177 46 177 47 174c2.56-1.69 2.56-1.69 5-3"/><path fill="#88732e" d="m111 4 4 5V7c2-2 2-2 4-3v2c3.11 1.56 6.26.96 9.69.84C131 7 131 7 133 9c-4.75 1-4.75 1-7 1l1 2c-5.32 1.08-10.63 2.15-16 3l-1 3-4-1 1-3-2-2 6-1-1-3c.44-2.19.44-2.19 1-4"/><path fill="#8c7e34" d="M58 29c2.92.97 4.72 1.7 6.81 4 3.14 2.87 6.05 3.17 10.19 4l-3-5c.56.3 1.12.59 1.7.9 2.32 1.11 4.61 1.93 7.05 2.72.8.27 1.6.53 2.42.79.61.2 1.21.39 1.83.59v1c-6.75.12-6.75.12-9-1v2h5v2c-.95-.16-1.9-.33-2.88-.5C75 40 75 40 73 40c-3-.25-3-.25-6-1-1.38-2.06-1.38-2.06-2-4h-2c1.47 3.87 3.5 4.97 7 7v2c-4.75-.88-4.75-.88-7-2-.25-.83-.49-1.65-.75-2.5-.41-.83-.83-1.65-1.25-2.5-3.12-.81-3.12-.81-6-1 .64-.1 1.28-.21 1.94-.31.68-.23 1.36-.46 2.06-.69l1-3-1-1z"/><path fill="#664d2e" d="M124 219h3l1 3h6c-2 2-2 2-4.62 2.12L127 224v4c-.72-.16-1.44-.33-2.19-.5-2.67-.48-5.1-.58-7.81-.5l1-2c-2.31-.16-2.31-.16-14-1l-1-3c.6-.03 1.2-.05 1.82-.08 2.71-.11 5.41-.23 8.12-.36l2.86-.12 2.73-.12c.83-.04 1.66-.08 2.52-.11C123 220 123 220 124 219"/><path fill="#fbde64" d="M177.63 139.75c1.15-.01 2.29-.01 3.48-.02 2.9.27 2.9.27 4.9 2.27v5c-1.82.16-1.82.16-11 1v-5h-2c-.34 1.32-.66 2.64-1 4-1-.33-1.98-.66-3-1l-2 4v-8c3.54-2.2 6.49-2.27 10.62-2.25"/><path fill="#372710" d="M208 76h1c-.01.28-.01.28-.07 1.7-.17 7.57.87 14.83 2.07 22.3h-4v5l4-1c-.11 1.48-.24 2.96-.38 4.44-.06.82-.13 1.64-.21 2.49-.06.34-.06.34-.41 2.07-.33.16-.33.16-2 1-.27-.96-.53-1.93-.8-2.92-.36-1.27-.71-2.53-1.08-3.83-.34-1.25-.69-2.51-1.05-3.8C204 100 204 100 202.8 97.73 202 96 202 96 203 93h2l1 3 2-2-3-2 1-3v-9h2z"/><path fill="#e8a95b" d="M194 162c.19.25.19.25 1.14 1.53 2.92 2.31 6.11 1.82 9.67 1.72.7-.01 1.4-.01 2.12-.02 4.11-.06 8.04-.44 12.07-1.23-.33.5-.33.5-2 3h-3v3h-12v-2l-11-1-1 2c-.16-.82-.16-.82-1-5h-2v-2c3.17-1.06 3.99-1.13 7 0"/><path fill="#b19940" d="m39 227-3 2 3 1v2l-2 2-1 2c-6.55.37-6.55.37-8.75-1.44-.21-.26-.21-.26-1.25-1.56l-3-1c-.16-.82-.16-.82-1-5 1.89-.2 3.79-.38 5.69-.56.53-.05.53-.05 3.2-.32 2.92-.11 5.28.17 8.11.88"/><path fill="#705a2f" d="M196 73c2.62 2.37 4.33 4.9 6 8v2c.62.06 1.24.12 1.88.19 2.12.81 2.12.81 3.43 3.19C208 89 208 89 207 92l2 2-1 3-2 1c-4.8-4.64-6.59-8.64-8.12-15.06-.1-.37-.1-.37-.56-2.22C196 75.3 196 75.3 196 73"/><path fill="#5d3a1c" d="M164 145h1v7h2l-1 6h2l1-3 1 2-1 3-2.44-.06C164 160 164 160 163 161c-5.31 1.37-10.5 2.29-16 2 1-3 1-3 2.73-4.12 2.5-.97 4.89-1.52 7.52-2 .45-.09.45-.09 2.7-.51.68-.12 1.35-.25 2.05-.37 0-1.83-.03-3.67-.12-5.5.12-2.5.12-2.5 2.12-5.5"/><path fill="#f8d39f" d="M186 102c.82.33.82.33 5 2v16h9l1 5c-.34-.08-.34-.08-2.07-.5-3.3-.56-6.4-.6-9.74-.56-1.16.01-2.33.02-3.52.02-.88.02-1.76.03-2.67.04v-2h7c-1.07-2.92-1.78-4.78-4-7l4-1c-.16-.83-.16-.83-1-5l-6-2c.38-1.94.38-1.94 1-4z"/><path fill="#3b2a12" d="M132.5 9.63c3.5 1.38 3.5 1.38 5.62 3.81 1.25 5.09.42 9.59-1.12 14.57l-2 2c-.66-.33-1.32-.67-2-1v2l-5 2c.43-.42.87-.83 1.31-1.26 2.98-3.08 5.13-5.47 5.38-9.87-.82-4.62-2.06-6.01-5.69-8.87-3.53-2.36-5.03-2.22-9.19-2.13-1.08.02-2.17.04-3.29.05-.83.03-1.66.05-2.52.08 5.32-3.55 12.36-2.5 18.5-1.38"/><path fill="#faefcc" d="M178 63c2.04 1.27 4.04 2.61 6 4v2c.8.31 1.61.62 2.44.94C189 71 189 71 190 72c.04 1.67.04 3.33 0 5-3.87 0-6.51-1.42-10-3v-2l-4-1c-.69-2.31-.69-2.31-1-5 1.44-1.81 1.44-1.81 3-3"/><path fill="#d0ae51" d="M35 61v2c.62.23 1.24.45 1.88.69 2.73 1.69 3.17 3.3 4.12 6.31-4.52 1.37-7.59.47-12-1-.12-.64-.25-1.28-.38-1.94-.2-.68-.41-1.36-.62-2.06l-2-1q-1.53-1.47-3-3c4.78-1.69 7.45-2.48 12 0"/><path fill="#edd5a4" d="M59 132h1c.13 6.55.13 6.55-.62 9.25-.07.29-.07.29-.38 1.75.33.5.33.5 2 3 .12 3.19.12 3.19 0 6h2l1 3 1 2-5 2-1-9-2 2c-4-6.5-4-6.5-4-11h2l1-6 1 3h2z"/><path fill="#fbb991" d="M219 24c1 1 1 1 1.1 3.07-.01.82-.03 1.64-.04 2.49-.01.83-.02 1.66-.02 2.51-.02.63-.03 1.27-.04 1.93h-1l-1-6h-3v2h-2l-1 4-6 1c.34-8.1.34-8.1 2.56-11.12 3.76-1.35 6.54-.65 10.44.12"/><path fill="#c6815b" d="M176 195h7l-4 1c.07 1.09.14 2.18.22 3.3.5 7.84.89 15.61.72 23.48C180 225 180 225 181 227h-4c-1.21-10.66-1.1-21.28-1-32"/><path fill="#1e0e05" d="m174 185 3 1-1 8h21v1h-21v30h-2z"/><path fill="#3d2916" d="M146 120c2.69.31 2.69.31 5 1-1.35 4.04-3.42 4.85-7 7-2.77.92-4.57 1.16-7.44 1.19-.76.01-1.52.03-2.31.04-2.48-.25-4.1-.99-6.25-2.23l1-4c.76.08 1.52.17 2.3.25.99.11 1.99.21 3.01.31.99.11 1.97.21 2.99.32 2.7.12 2.7.12 5.7-.88.45-.54.91-1.07 1.38-1.62.53-.46 1.07-.91 1.62-1.38"/><path fill="#573921" d="M152 175c1.94.31 1.94.31 4 1 1.15 3.45 1.2 6.24 1.25 9.88.03 1.21.05 2.42.08 3.67-.42 4.45-1.78 6.93-4.94 10.03-3.91 2.83-6.39 4.03-11.39 3.42v-2c.71-.24 1.42-.48 2.15-.73.92-.34 1.84-.67 2.79-1.02.46-.16.46-.16 2.77-.98 2.29-1.27 2.29-1.27 3.08-3.12.03-.35.03-.35.21-2.15.09-.77.19-1.53.28-2.32.15-1.59.29-3.17.44-4.75C153 184 153 184 154 183c-.34-1.85-.34-1.85-.94-4.06-.19-.74-.39-1.47-.59-2.23-.15-.56-.31-1.13-.47-1.71"/><path fill="#774f20" d="m223 146 4 2v3h5l-1 3 2 1-4 4-2-3-3 1v-6c-1.13.02-2.26.05-3.43.07-1.48.02-2.96.04-4.45.05l-2.26.06c-1.95.01-3.91-.08-5.86-.18l-2-2c5.71-.99 11.21-1.1 17-1z"/><path fill="#745b2f" d="M57 83h2c1.23 3.6.82 6.41.19 10.12-.17 1.06-.35 2.11-.52 3.2C58 99 58 99 56 101c-1.34-.29-2.68-.63-4-1l-2 1c.16-1.09.33-2.19.5-3.31C51 94 51 94 51 91l2-1 1-3h2z"/><path fill="#f08f6c" d="M204 36h3v6c.56-.52 1.11-1.03 1.69-1.56C211 39 211 39 213.75 39.31q1.11.345 2.25.69c-3.96 4.57-7.6 5.79-13.56 6.31-3.66-.33-5.5-1.17-8.44-3.31l1-2c.66.16.66.16 4 1l2-4h2l1 1z"/><path fill="#eee2c0" d="M114 49c1.93-.36 1.93-.36 4.3-.33.43 0 .43 0 2.63.02l2.82.06 2.85.03c7.49.12 14.94.52 22.4 1.22v1c-7.34 1.17-14.58 1.11-22 1.06-1.25 0-2.5-.01-3.79-.01-3.07-.01-6.14-.03-9.21-.05.1.48.1.48.59 2.88.41 3.12.41 3.12-1.03 5-.51.37-1.03.74-1.56 1.12l-3-2v-2h2c.12-.76.25-1.53.38-2.31C112 52 112 52 114 49"/><path fill="#f9b38c" d="M192 22c3.62-.19 3.62-.19 7 0v2c-.33.16-.33.16-2 1 .35.54.7 1.07 1.06 1.62 1.23 3.11.67 5.17-.06 8.38l-9-3c.75-6.62.75-6.62 3-10"/><path fill="#e5936c" d="M216 174v6l-5 1 1-3h-2l-1-1c-2.15-.09-4.29-.11-6.44-.1-1.31.01-2.61.01-3.96.01l-4.16.03c-1.4 0-2.79.01-4.18.01-3.42.01-6.84.03-10.26.05l-1 3v-5c4.63-.31 9.25-.61 13.88-.91 1.57-.1 3.15-.2 4.72-.31 2.26-.15 4.53-.3 6.79-.44.7-.05 1.4-.1 2.13-.15 3.35-.2 6.28-.29 9.48.81"/><path fill="#8d6c31" d="M39 220v2c.47-.1.47-.1 2.88-.62 1.03-.13 2.06-.25 3.12-.38l2 2c5.05.86 9.88 1.11 15 1 .16.33.16.33 1 2-4.43 1.16-8.61.95-13.12.62-.72-.04-1.44-.08-2.17-.13-3.1-.21-5.75-.5-8.71-1.49v2h-2v-5h-9v-2c3.82-1.37 7.07-.68 11 0"/><path fill="#9b7b3f" d="m26.25 212.94 2.7.03L31 213v2l-3 1v5h10l1 3h-2v2l-4 1v-2l-4 1-1-3c-2.06-1.18-2.06-1.18-4-2l1-2h-2v-3l-5 1-1-3c3.16-.93 5.97-1.1 9.25-1.06"/><path fill="#554125" d="m66 221 21 1v2c.99.16.99.16 6 1v3c-6.44.11-12.63-.04-19-1l-1-3c-3.56-1.19-3.56-1.19-7-2z"/><path fill="#f9e067" d="m192 153 1 3h-2l-1 3c-3.15 1.05-5.39 1.1-8.69 1.06-.99-.01-1.99-.02-3.01-.02-.38-.01-.38-.01-2.3-.04l1-5c1.01-.24 1.01-.24 6.05-1.46 5.19-1.43 5.19-1.43 8.95-.54"/><path fill="#fbe06c" d="M205 139c2.12-.03 4.25-.05 6.38-.06 1.18-.01 2.36-.03 3.58-.04 3.04.1 3.04.1 5.04 1.1v2l-4 1 2 2h-4l2 2h-11c-1.12-5.75-1.12-5.75 0-8"/><path fill="#3b2a15" d="M48 119h1c1.12 6.62 1.12 6.62 0 10l2-1 1-4-1 23-2-1-1-3h-2c-.05-2.69-.09-5.37-.12-8.06l-.06-2.28c-.04-4.95.6-8.96 2.18-13.66"/><path fill="#624e26" d="m207 70 4 2c-.02 1.21-.05 2.41-.07 3.66-.02 1.61-.04 3.23-.05 4.84l-.06 2.4c-.04 5.99.45 11.65 3.18 17.1h-2v5h-5v-5h4c-.22-1.11-.43-2.22-.66-3.36l-.84-4.39c-.14-.73-.29-1.46-.43-2.21-.66-3.43-1.07-6.53-1.07-10.04l-3 1v-5h2z"/><path fill="#faefcb" d="M63 84c3 1 3 1 4 3l4-2c-.93 1.32-1.87 2.63-2.81 3.94-.26.36-.26.36-1.58 2.21C65 93 65 93 62 94v6h-4l-1 6h-1c1-8.13 3.16-14.83 7-22"/><path fill="#be6b4d" d="m206 197 1 7h-5l-1 16h-1l-1-8h-1v-14c2.71-1.35 5.01-1.07 8-1"/><path fill="#432b17" d="M247 165h1c.33 3.62.67 7.25 1 10.88.1 1.03.19 2.06.29 3.12.04.5.04.5.27 2.99.09.91.17 1.82.26 2.76.18 2.25.18 2.25.18 4.25h-2l-1 5h-1c-.91-4.66-1.18-9.2-1.19-13.94l-.03-2.05c-.02-4.75.75-8.55 2.22-13.01"/><path fill="#c0a151" d="M47 111h1c.03 2.12.05 4.25.06 6.38.01 1.18.03 2.36.04 3.58C48 124 48 124 47 126c-.15 2.1-.25 4.21-.32 6.32l-.12 3.81-.12 3.99c-.05 1.34-.09 2.68-.13 4.02-.11 3.29-.21 6.57-.31 9.86-2.75-2.75-3.22-5.22-4-9 .88-2.44.88-2.44 2-4l-1-1c-.1-1.62-.13-3.25-.12-4.88-.01-.88-.01-1.76-.01-2.67C43 130 43 130 44 127c.93-3.38 1.5-6.79 2.06-10.25.18-1.08.36-2.16.54-3.27.13-.82.26-1.64.4-2.48m-3 22 1 2z"/><path fill="#402f14" d="m214 60 3 1c-.45 1.2-.91 2.39-1.38 3.62-3.76 11.49-3.85 22.52-2.62 34.38-3.72-5.59-3.13-11.89-3.06-18.38 0-.83.01-1.66.01-2.51.01-2.04.03-4.07.05-6.11l-2-1v-3l4-1z"/><path fill="#9d793d" d="M43 233h4v-2h8v4l4 1c-15.74 1.33-15.74 1.33-23 0l-1-4c3.5-1.25 4.8-.7 8 1"/><path fill="#e4cb95" d="M48 211c.31.04.31.04 1.86.22.41.05.41.05 2.45.28.4.05.4.05 2.43.28C57 212 57 212 60 212h3v4c3 2.25 3 2.25 6 4-3.17 1.59-6.1.18-9.38-.69-.67-.16-1.34-.32-2.03-.49-4.23-1.11-6.9-2.33-9.59-5.82z"/><path fill="#776136" d="m35 182 1 3 3-3v9l-1-2h-2l1 13-2-2-2 4-2-2c.02-2.28.02-2.28.38-4.94.34-2.74.62-5.29.62-8.06.96-2.35 1.95-4.69 3-7"/><path fill="#906e33" d="M41 227c4.58-.08 8.51.1 13 1l3-1c3.19.94 3.19.94 6 2-2.49 1.25-3.41.78-6 0v2h6v2c-.76.14-1.53.29-2.31.44C58 234 58 234 55 235v-4h-8v2h-4v-2l-2-1z"/><path fill="#d3b885" d="m43 188 4 2c.04 1.67.04 3.33 0 5l-1 1a95 95 0 0 0-.06 5.06c.01.92.02 1.84.02 2.79.02.71.03 1.42.04 2.15l-1-3-6 1c-1.35-2.71-1.07-5.01-1-8h1l1-5 1 3h3z"/><path fill="#eedaae" d="m236.63 144.88 2.38.12v2h2v4c.99.17.99.17 6 1v2c-2.13.03-4.25.05-6.38.07l-3.59.03c-3.03-.1-3.03-.1-5.03-1.1-.13-2.87-.13-2.87 0-6 2-2 2-2 4.62-2.12"/><path fill="#aa753e" d="M177 230c.99.16.99.16 6 1v3c.56-.16 1.12-.33 1.7-.49 2.44-.54 4.58-.62 7.07-.61.89.01 1.77.01 2.69.01l2.79.03c.94 0 1.87.01 2.84.01 2.3.01 4.61.03 6.91.05v2c-3.36.76-6.43 1.11-9.87 1.06-.91-.01-1.81-.01-2.74-.02-1.88-.03-3.76-.05-5.64-.08-3.89-.03-7.44-.01-11.29.66-.81.13-1.62.25-2.46.38l-2-2h2l1-2h3z"/><path fill="#bfb657" d="M249 52h2c3.05 5.76 4.55 9.44 3 16-.2 1.48-.39 2.96-.56 4.44-.15 1.17-.29 2.35-.44 3.56h-2l-1 2c-.12-6.75-.12-6.75 1-9l-2-1v-8h1c.08-3.04-.02-5.07-1-8"/><path fill="#a98439" d="M143 229v2l-4 1 4 1v7l-17-1v-2h13v-3h-7c.38-2.44.38-2.44 1-5 3.28-1.64 6.43-.52 10 0"/><path fill="#56442c" d="m115 116 1 1a69 69 0 0 1-.44 4.56c-.1.83-.2 1.66-.31 2.51-.08.63-.16 1.27-.25 1.93h-8l-2-9c3.6-.9 6.33-1.16 10-1"/><path fill="#a66a40" d="M237 231h8c-1 3-1 3-2 5h4v2c-2.15.16-2.15.16-13 1l-1-2c-3.06-.62-3.06-.62-6-1v-1c1.49-.16 1.49-.16 9-1zm2 2 1 3 2-1z"/><path fill="#8e6532" d="m143 222 7 1v1h-5v2h9c-1 2-1 2-3 4-5.72.58-10.53-.3-16-2l-2-2c6.29-2.43 6.29-2.43 10-1z"/><path fill="#977c34" d="M164.19 46.63c2.81 1.38 2.81 1.38 3.69 3.5l.12 1.88c3.75 1.12 3.75 1.12 6 0 .69 2.49 1 4.37 1 7-4.56-1.27-8.06-2.38-12-5v-2l-4-1c.33-.66.66-1.33 1-2l-3-1c2.78-1.93 3.79-2.05 7.19-1.38"/><path fill="#8a832e" d="M77 32c.62.14 1.24.29 1.88.44 2.7.48 5.26.73 8 .94 4.62.44 8.04 1.37 12.12 3.62l1 3h-2v-2l-3 1 2 2c-.8.12-1.61.25-2.44.38-.84.2-1.69.41-2.56.62l-1 2-3-3h3l1-2c-.39-.06-.39-.06-2.38-.38C87 38 87 38 85 36c-1.95-.85-1.95-.85-4.12-1.62-.73-.27-1.45-.53-2.2-.79-.55-.2-1.11-.39-1.68-.59z"/><path fill="#453815" d="M219 74c1.93.71 1.93.71 4 2 .79 2.1.79 2.1 1.19 4.62.14.89.29 1.78.44 2.69.06.45.06.45.37 2.69.11.8.22 1.61.34 2.44.24 1.85.45 3.7.66 5.56h-2c-5.77-5.77-5.77-5.77-6.23-10.25.01-.77.03-1.53.04-2.31.01-.38.01-.38.02-2.32C218 77 218 77 219 74"/><path fill="#f7f0d5" d="M108 53c-1 3-1 3-3.06 4.19-.64.27-1.28.53-1.94.81v2h-8v2c-1.05.27-2.1.54-3.19.81C88 64 88 64 85.19 65.69c-.72.43-1.45.86-2.19 1.31l-2-1c7.19-5.6 17.51-13 27-13"/><path fill="#c9bb66" d="M129 12c2.56 1.5 2.56 1.5 4 3l-1 4c-.82-.16-.82-.16-5-1v-2c-.34.09-.34.09-2.06.56-3.55.53-6.44.18-9.94-.56l-1-2c5-2.05 9.66-2.7 15-2"/><path fill="#eec14e" d="M204 142h1v5c1.11-.16 2.23-.33 3.38-.5 3.62-.5 3.62-.5 5.62-.5l-2-2h4l-1-2c5.75-.12 5.75-.12 8 1v5c-2.98.19-5.96.38-8.94.56-.85.06-1.7.11-2.57.17l-2.45.15c-.75.05-1.5.09-2.27.14C205 149 205 149 204 148q-.06-3 0-6"/><path fill="#a17c38" d="M222 122c1.46 2.65 2 3.89 2 7h4v2l3 1-2 2c-.12 3.12-.12 3.12 0 6-.74-.62-1.49-1.24-2.25-1.88C224 136 224 136 220 134v-9h2z"/><path fill="#dd8661" d="M160 171h1c.03 3.4.05 6.79.06 10.19l.03 2.91c0 .93 0 1.86.01 2.82 0 .85.01 1.71.01 2.58-.11 2.59-.54 4.98-1.11 7.5h-1c-.11-.81-.22-1.62-.33-2.46-1.06-7.36-2.53-14.41-4.67-21.54h2l2 2z"/><path fill="#e49b6e" d="M243 156c2.12 5.62 2.12 5.62 1 9-1-1-1-1-1.06-4.06L243 158h-8l4 5h-14v-2c5.48-5.05 10.82-5.66 18-5"/><path fill="#5e4821" d="m138 20 3 1v4h-2l1 3c-2.46 3.88-4.62 5.66-9 7v2h-6v-3c5.75-3 5.75-3 8-3v-2l3-1c.73-1.85.73-1.85 1.19-4.06l.48-2.23q.165-.84.33-1.71"/><path fill="#857e2e" d="m118 24 1 2h7v1c-1.05.25-2.1.5-3.19.75-3.62 1.02-6.01 2.7-8.81 5.25l1 2-3 1 1 3-3 1c-.12-.8-.25-1.61-.38-2.44-.1-.42-.1-.42-.62-2.56l-2-1h2l-1-4 2.94-.88C114 28 114 28 115 26h3z"/><path fill="#503f1b" d="M71.94 20.19c.68.27 1.36.54 2.06.81l-1 4-7 2-1 7c-2.06-1.69-2.06-1.69-4-4-.18-2.43-.18-2.43 1-5 3.04-3.04 5.55-5.09 9.94-4.81"/><path fill="#6f331d" d="M196 18c4.23.47 6.1.97 9 4h4c-.71 3.67-2.28 6.7-4 10-.25-.56-.5-1.11-.75-1.69-2.13-3.94-3.92-6.87-8.25-8.31z"/><path fill="#412b18" d="M220 221c.99.16.99.16 6 1-2.51 2.69-4.67 4.45-8 6l-2 2c-2.16.41-2.16.41-4.62.62-.82.08-1.64.15-2.48.23-.63.05-1.25.1-1.9.15v-5c1.58-.34 3.17-.67 4.75-1 .88-.19 1.76-.37 2.67-.56C217 224 217 224 221 224z"/><path fill="#e8c283" d="M220 208h1v10h2l1-4 1 2h2v-2h4v6c-3.62 1.32-6.1 2-10 2-1.38-2.76-1.1-5.05-1.06-8.12.01-1.1.02-2.2.02-3.33.02-.84.03-1.68.04-2.55"/><path fill="#cc7657" d="m155 211 2 1c.93 4.3 1.41 8.64 2 13l-13-3-1-4 2.38.06C150 218 150 218 152 217v3h2l-.06-2.25c.05-2.45.37-4.41 1.06-6.75"/><path fill="#d67b5b" d="m217 188-1 2c-2.62.63-5.16 1.13-7.81 1.56-.77.13-1.53.26-2.31.39-6.27 1.03-12.54 1.7-18.88 2.05v-2l-4-1c.36-.03.36-.03 2.18-.15 3.3-.24 6.59-.48 9.88-.73 1.14-.07 2.27-.15 3.44-.23 9.46-.72 9.46-.72 13.68-2.02C215 187 215 187 217 188"/><path fill="#784d31" d="M216 192h1v26h2v-11h1c.19 2.29.38 4.58.56 6.88.11 1.27.21 2.55.32 3.86C221 221 221 221 220 223l2 1c-1.66.38-3.32.71-5 1-1-1-1-1-1.11-4.05 0-1.35 0-2.7.01-4.05 0-.71.01-1.42.01-2.15q0-3.405.03-6.81c0-1.54.01-3.08.01-4.61.01-3.78.03-7.55.05-11.33"/><path fill="#7b7429" d="M229 66h6v2l2 1-4 4v-3c-1.15 3.94-1.53 7.94-2 12-3-2-3-2-3.81-5.75-.37-3.83.3-6.69 1.81-10.25"/><path fill="#ad933d" d="M57 233c5.66.37 10.01 1.06 15 4l-1 3c-.97-.14-1.94-.29-2.94-.44-3.7-.54-7.41-.88-11.14-1.18C55 238 55 238 53 236l5-1z"/><path fill="#b4954a" d="M31 203c3.81 1.45 5.33 3.3 7 7-.31 2.31-.31 2.31-1 4l-6 1v-2l-5-1 1-2h4z"/><path fill="#dd8061" d="m150 203 1 9h-6l-1 3-1-12c4-1 4-1 7 0"/><path fill="#f2ba8e" d="M207 196c-6.75 2-6.75 2-9 2v5h-5l-1-4-13-2v-1c4.1-.2 8.21-.38 12.31-.56 1.17-.06 2.34-.11 3.54-.17l3.39-.15c.51-.02.51-.02 3.12-.14C204 195 204 195 207 196"/><path fill="#3c260f" d="M228 133c1.38 1.29 2.71 2.63 4 4v2h3l1 3-3 1 2 2-2 2c-.62 2.12-.62 2.12-1 4h-2l-1 2v-2h-2c.44-3.13.9-5.78 2.19-8.69.27-.76.53-1.52.81-2.31l-2-3z"/><path fill="#f7dfaf" d="M62 135h2c1.42 3.82 2.24 6.91 2 11h-4v6h-1l-3-12 4-2z"/><path fill="#543f1e" d="m46 219 11 1v2l1.93.18c.83.09 1.66.17 2.51.26l2.49.24C66 223 66 223 67 224c1.67.04 3.33.04 5 0l-1 3c-5.62.25-5.62.25-9-2-2.57-.61-5.1-1.15-7.69-1.62-.7-.14-1.4-.27-2.12-.41-1.73-.33-3.46-.65-5.19-.97z"/><path fill="#fdf1ce" d="m126 171 14 2v2l-5 1-1 4h-7l.06-3.38C127 173 127 173 126 171"/><path fill="#eaae51" d="M15 80c.82.17.82.17 5 1-.33.5-.33.5-2 3l-3-2z"/><path fill="#aea451" d="m252 95 3 1-2 4h-1z"/><path fill="#bcbc43" d="m55 29 4 3h-4z"/><path fill="#daa74f" d="M242 40h5l-1 2z"/><path fill="#d8b240" d="m252 44 3 3-3-1z"/><path fill="#efdf10" d="M188 61h2l-1 3z"/><path fill="#cfbf30" d="M260 52v3z"/><path fill="#cfb836" d="m119 41 3 1-3 1z"/><path fill="#e9e915" d="m63 21 3 1-3 1z"/><path fill="#cd4731" d="m246 232 2 2h-2z"/><path fill="#b8b847" d="M267 220h2l-1 2z"/><path fill="#f0b855" d="M34 180c.33.16.33.16 2 1-.33.16-.33.16-2 1z"/><path fill="#ff0" d="m39 152 3 1z"/><path fill="#e2e21c" d="M42 125h2l-1 2z"/><path fill="#e9bf40" d="m202 76 2 2h-2z"/><path fill="#ffd42a" d="m11 72 3 1z"/><path fill="#e28e71" d="m122 40 3 1z"/><path fill="#e2e21c" d="m124 6 3 1z"/><path fill="#ff7f00" d="m260 235 2 1z"/><path fill="#c58c53" d="m251 187 2 1z"/><path fill="#aa5" d="m224 128 2 1z"/><path fill="#df8f60" d="m236 107 2 1z"/><path fill="#ffbf40" d="m73 62 2 1z"/><path fill="#e9956a" d="m86 54 2 1z"/><path fill="#ff0" d="m79 53 2 1z"/><path fill="#bfbf40" d="m63 43 2 1z"/><path fill="#ff0" d="m123 42 2 1zM207 17l2 1zM132 4l2 1z"/></svg>